<svg width="331" height="260" viewBox="0 0 331 260" fill="none" xmlns="http://www.w3.org/2000/svg">
<rect x="0.5" y="0.5" width="330" height="259" rx="9.5" fill="white" stroke="white"/>
<path d="M102.036 47V36.794H109.302V38.39H103.562L103.884 38.068V47H102.036ZM103.38 42.814V41.302H108.742V42.814H103.38ZM113.581 47.126C113.021 47.126 112.517 47.042 112.069 46.874C111.621 46.6967 111.229 46.44 110.893 46.104C110.567 45.768 110.315 45.362 110.137 44.886C109.969 44.41 109.885 43.8733 109.885 43.276C109.885 42.5107 110.03 41.8387 110.319 41.26C110.618 40.6813 111.043 40.2287 111.593 39.902C112.144 39.5753 112.807 39.412 113.581 39.412C114.132 39.412 114.631 39.5007 115.079 39.678C115.527 39.8553 115.91 40.112 116.227 40.448C116.554 40.784 116.806 41.19 116.983 41.666C117.161 42.1327 117.249 42.6693 117.249 43.276C117.249 44.032 117.1 44.6993 116.801 45.278C116.512 45.8567 116.092 46.3093 115.541 46.636C115 46.9627 114.347 47.126 113.581 47.126ZM113.567 45.684C113.95 45.684 114.286 45.5953 114.575 45.418C114.865 45.2313 115.089 44.9607 115.247 44.606C115.406 44.242 115.485 43.7987 115.485 43.276C115.485 42.884 115.439 42.5387 115.345 42.24C115.261 41.932 115.135 41.6753 114.967 41.47C114.799 41.2647 114.599 41.1107 114.365 41.008C114.132 40.9053 113.871 40.854 113.581 40.854C113.199 40.854 112.858 40.9473 112.559 41.134C112.27 41.3113 112.046 41.582 111.887 41.946C111.729 42.3007 111.649 42.744 111.649 43.276C111.649 43.668 111.691 44.018 111.775 44.326C111.869 44.6247 111.999 44.8767 112.167 45.082C112.335 45.278 112.536 45.4273 112.769 45.53C113.012 45.6327 113.278 45.684 113.567 45.684ZM118.7 47V39.552H120.282L120.366 40.798H120.422C120.59 40.322 120.86 39.9813 121.234 39.776C121.616 39.5613 122.05 39.454 122.536 39.454C122.62 39.454 122.694 39.454 122.76 39.454C122.834 39.454 122.904 39.454 122.97 39.454V41.106C122.914 41.106 122.844 41.106 122.76 41.106C122.685 41.0967 122.601 41.092 122.508 41.092C122.06 41.092 121.686 41.1667 121.388 41.316C121.089 41.456 120.86 41.6613 120.702 41.932C120.552 42.2027 120.468 42.534 120.45 42.926V47H118.7ZM127.329 47V36.794H132.355C132.766 36.794 133.139 36.8313 133.475 36.906C133.82 36.9807 134.128 37.0927 134.399 37.242C134.67 37.3913 134.898 37.578 135.085 37.802C135.272 38.026 135.416 38.2873 135.519 38.586C135.622 38.8753 135.673 39.202 135.673 39.566C135.673 40.2007 135.505 40.7373 135.169 41.176C134.842 41.6053 134.385 41.8993 133.797 42.058V42.142C134.198 42.2073 134.52 42.3287 134.763 42.506C135.006 42.674 135.183 42.8933 135.295 43.164C135.407 43.4347 135.463 43.7613 135.463 44.144V45.866C135.463 46.0433 135.468 46.23 135.477 46.426C135.496 46.6127 135.547 46.804 135.631 47H133.755C133.699 46.8693 133.657 46.706 133.629 46.51C133.61 46.314 133.601 46.0947 133.601 45.852V44.466C133.601 44.1487 133.554 43.8873 133.461 43.682C133.368 43.4673 133.2 43.304 132.957 43.192C132.714 43.0707 132.364 43.01 131.907 43.01H128.995V41.54H131.935C132.598 41.54 133.069 41.386 133.349 41.078C133.629 40.7607 133.769 40.3687 133.769 39.902C133.769 39.6127 133.722 39.3747 133.629 39.188C133.545 38.992 133.419 38.8333 133.251 38.712C133.092 38.5813 132.901 38.488 132.677 38.432C132.453 38.3667 132.206 38.334 131.935 38.334H129.177V47H127.329ZM140.401 47.126C139.645 47.126 139.001 46.972 138.469 46.664C137.946 46.3467 137.545 45.9033 137.265 45.334C136.985 44.7553 136.845 44.0833 136.845 43.318C136.845 42.5247 136.985 41.8387 137.265 41.26C137.545 40.672 137.946 40.2193 138.469 39.902C138.992 39.5847 139.612 39.426 140.331 39.426C141.152 39.426 141.824 39.608 142.347 39.972C142.879 40.3267 143.262 40.8213 143.495 41.456C143.728 42.0907 143.808 42.8187 143.733 43.64H138.553C138.553 44.116 138.628 44.5173 138.777 44.844C138.936 45.1613 139.15 45.404 139.421 45.572C139.701 45.7307 140.028 45.81 140.401 45.81C140.84 45.81 141.194 45.7167 141.465 45.53C141.745 45.3433 141.932 45.096 142.025 44.788H143.677C143.602 45.2733 143.416 45.6933 143.117 46.048C142.818 46.3933 142.436 46.6593 141.969 46.846C141.502 47.0327 140.98 47.126 140.401 47.126ZM138.553 42.702L138.399 42.52H142.193L142.025 42.716C142.044 42.2587 141.983 41.8853 141.843 41.596C141.703 41.3067 141.502 41.092 141.241 40.952C140.98 40.812 140.676 40.742 140.331 40.742C139.976 40.742 139.668 40.8167 139.407 40.966C139.146 41.1153 138.94 41.3393 138.791 41.638C138.642 41.9273 138.562 42.282 138.553 42.702ZM146.908 47L144.318 39.552H146.194L147.44 43.85L147.958 45.656H148.028L148.546 43.85L149.792 39.552H151.682L149.092 47H146.908ZM152.838 47V39.552H154.588V47H152.838ZM153.72 38.544C153.44 38.544 153.207 38.4693 153.02 38.32C152.843 38.1613 152.754 37.9513 152.754 37.69C152.754 37.4193 152.843 37.2093 153.02 37.06C153.207 36.9107 153.44 36.836 153.72 36.836C154 36.836 154.229 36.9107 154.406 37.06C154.593 37.2093 154.686 37.4193 154.686 37.69C154.686 37.9513 154.593 38.1613 154.406 38.32C154.229 38.4693 154 38.544 153.72 38.544ZM159.569 47.126C158.813 47.126 158.169 46.972 157.637 46.664C157.114 46.3467 156.713 45.9033 156.433 45.334C156.153 44.7553 156.013 44.0833 156.013 43.318C156.013 42.5247 156.153 41.8387 156.433 41.26C156.713 40.672 157.114 40.2193 157.637 39.902C158.16 39.5847 158.78 39.426 159.499 39.426C160.32 39.426 160.992 39.608 161.515 39.972C162.047 40.3267 162.43 40.8213 162.663 41.456C162.896 42.0907 162.976 42.8187 162.901 43.64H157.721C157.721 44.116 157.796 44.5173 157.945 44.844C158.104 45.1613 158.318 45.404 158.589 45.572C158.869 45.7307 159.196 45.81 159.569 45.81C160.008 45.81 160.362 45.7167 160.633 45.53C160.913 45.3433 161.1 45.096 161.193 44.788H162.845C162.77 45.2733 162.584 45.6933 162.285 46.048C161.986 46.3933 161.604 46.6593 161.137 46.846C160.67 47.0327 160.148 47.126 159.569 47.126ZM157.721 42.702L157.567 42.52H161.361L161.193 42.716C161.212 42.2587 161.151 41.8853 161.011 41.596C160.871 41.3067 160.67 41.092 160.409 40.952C160.148 40.812 159.844 40.742 159.499 40.742C159.144 40.742 158.836 40.8167 158.575 40.966C158.314 41.1153 158.108 41.3393 157.959 41.638C157.81 41.9273 157.73 42.282 157.721 42.702ZM165.304 47L163.484 39.552H165.276L166.172 43.514L166.55 45.446H166.634L166.97 43.514L167.782 39.552H169.756L170.582 43.514L170.918 45.46H171.002L171.366 43.514L172.276 39.552H173.984L172.164 47H169.868L169.084 43.514L168.734 41.554H168.664L168.328 43.514L167.6 47H165.304Z" fill="#818181"/>
<path d="M102.242 76V62.878H107.606C108.71 62.878 109.628 63.058 110.36 63.418C111.092 63.766 111.638 64.264 111.998 64.912C112.37 65.548 112.556 66.304 112.556 67.18C112.556 68.104 112.352 68.89 111.944 69.538C111.536 70.186 110.96 70.684 110.216 71.032C109.472 71.368 108.602 71.536 107.606 71.536H104.798V69.358H107.372C108.176 69.358 108.764 69.16 109.136 68.764C109.52 68.368 109.712 67.87 109.712 67.27C109.712 66.574 109.496 66.064 109.064 65.74C108.644 65.416 108.08 65.254 107.372 65.254H104.69L105.05 64.912V76H102.242ZM114.14 76V66.352H116.534L116.642 67.9H116.732C116.948 67.276 117.29 66.844 117.758 66.604C118.238 66.352 118.784 66.226 119.396 66.226C119.504 66.226 119.6 66.226 119.684 66.226C119.768 66.226 119.852 66.226 119.936 66.226V68.71C119.876 68.71 119.792 68.71 119.684 68.71C119.576 68.71 119.462 68.71 119.342 68.71C118.754 68.71 118.274 68.8 117.902 68.98C117.53 69.148 117.254 69.4 117.074 69.736C116.894 70.072 116.798 70.48 116.786 70.96V76H114.14ZM121.435 76V66.352H124.081V76H121.435ZM122.749 65.218C122.341 65.218 122.005 65.11 121.741 64.894C121.477 64.678 121.345 64.378 121.345 63.994C121.345 63.598 121.477 63.292 121.741 63.076C122.005 62.86 122.341 62.752 122.749 62.752C123.169 62.752 123.511 62.86 123.775 63.076C124.039 63.292 124.171 63.598 124.171 63.994C124.171 64.378 124.039 64.678 123.775 64.894C123.511 65.11 123.169 65.218 122.749 65.218ZM130.659 76.162C129.927 76.162 129.267 76.054 128.679 75.838C128.091 75.61 127.581 75.28 127.149 74.848C126.717 74.416 126.387 73.894 126.159 73.282C125.931 72.658 125.817 71.956 125.817 71.176C125.817 70.18 126.009 69.31 126.393 68.566C126.777 67.81 127.329 67.222 128.049 66.802C128.769 66.382 129.639 66.172 130.659 66.172C131.379 66.172 132.033 66.286 132.621 66.514C133.209 66.742 133.713 67.072 134.133 67.504C134.565 67.936 134.895 68.458 135.123 69.07C135.363 69.682 135.483 70.384 135.483 71.176C135.483 72.16 135.291 73.03 134.907 73.786C134.523 74.53 133.971 75.112 133.251 75.532C132.543 75.952 131.679 76.162 130.659 76.162ZM130.641 74.02C131.073 74.02 131.451 73.918 131.775 73.714C132.111 73.498 132.363 73.18 132.531 72.76C132.711 72.34 132.801 71.812 132.801 71.176C132.801 70.696 132.753 70.282 132.657 69.934C132.561 69.574 132.417 69.274 132.225 69.034C132.033 68.794 131.805 68.62 131.541 68.512C131.277 68.392 130.983 68.332 130.659 68.332C130.227 68.332 129.843 68.434 129.507 68.638C129.183 68.842 128.931 69.154 128.751 69.574C128.571 69.994 128.481 70.528 128.481 71.176C128.481 71.656 128.529 72.076 128.625 72.436C128.733 72.784 128.883 73.078 129.075 73.318C129.267 73.546 129.495 73.72 129.759 73.84C130.023 73.96 130.317 74.02 130.641 74.02ZM137.202 76V66.352H139.596L139.704 67.9H139.794C140.01 67.276 140.352 66.844 140.82 66.604C141.3 66.352 141.846 66.226 142.458 66.226C142.566 66.226 142.662 66.226 142.746 66.226C142.83 66.226 142.914 66.226 142.998 66.226V68.71C142.938 68.71 142.854 68.71 142.746 68.71C142.638 68.71 142.524 68.71 142.404 68.71C141.816 68.71 141.336 68.8 140.964 68.98C140.592 69.148 140.316 69.4 140.136 69.736C139.956 70.072 139.86 70.48 139.848 70.96V76H137.202ZM144.497 76V66.352H147.143V76H144.497ZM145.811 65.218C145.403 65.218 145.067 65.11 144.803 64.894C144.539 64.678 144.407 64.378 144.407 63.994C144.407 63.598 144.539 63.292 144.803 63.076C145.067 62.86 145.403 62.752 145.811 62.752C146.231 62.752 146.573 62.86 146.837 63.076C147.101 63.292 147.233 63.598 147.233 63.994C147.233 64.378 147.101 64.678 146.837 64.894C146.573 65.11 146.231 65.218 145.811 65.218ZM152.767 76C151.939 76 151.327 75.808 150.931 75.424C150.535 75.028 150.337 74.404 150.337 73.552V68.476H148.609V66.352H150.337V63.724L152.983 63.472V66.352H154.927V68.476H152.983V73.066C152.983 73.366 153.055 73.57 153.199 73.678C153.343 73.786 153.547 73.84 153.811 73.84H154.927V76H152.767ZM156.677 79.006V76.828H157.811C158.087 76.828 158.315 76.792 158.495 76.72C158.687 76.66 158.843 76.552 158.963 76.396C159.095 76.252 159.203 76.066 159.287 75.838L159.737 74.668V75.784L155.813 66.352H158.729L160.313 71.248L160.781 72.814H160.889L161.339 71.248L162.815 66.352H165.641L161.897 76.45C161.645 77.122 161.345 77.644 160.997 78.016C160.649 78.388 160.253 78.646 159.809 78.79C159.365 78.934 158.867 79.006 158.315 79.006H156.677ZM170.955 76V62.878H177.633C178.173 62.878 178.665 62.926 179.109 63.022C179.553 63.118 179.949 63.262 180.297 63.454C180.657 63.646 180.957 63.886 181.197 64.174C181.449 64.462 181.641 64.798 181.773 65.182C181.905 65.566 181.971 65.998 181.971 66.478C181.971 67.294 181.755 67.984 181.323 68.548C180.891 69.1 180.303 69.478 179.559 69.682V69.79C180.063 69.874 180.471 70.03 180.783 70.258C181.107 70.474 181.341 70.756 181.485 71.104C181.629 71.44 181.701 71.854 181.701 72.346V74.506C181.701 74.746 181.707 74.992 181.719 75.244C181.743 75.496 181.809 75.748 181.917 76H179.091C179.019 75.844 178.965 75.634 178.929 75.37C178.905 75.106 178.893 74.818 178.893 74.506V72.832C178.893 72.46 178.833 72.148 178.713 71.896C178.605 71.644 178.407 71.452 178.119 71.32C177.831 71.176 177.417 71.104 176.877 71.104H173.511V68.89H176.985C177.741 68.89 178.281 68.71 178.605 68.35C178.929 67.99 179.091 67.54 179.091 67C179.091 66.664 179.037 66.388 178.929 66.172C178.833 65.944 178.689 65.758 178.497 65.614C178.305 65.47 178.083 65.368 177.831 65.308C177.579 65.236 177.297 65.2 176.985 65.2H173.763V76H170.955ZM188.065 76.18C187.057 76.18 186.199 75.976 185.491 75.568C184.795 75.16 184.261 74.584 183.889 73.84C183.517 73.096 183.331 72.232 183.331 71.248C183.331 70.204 183.517 69.304 183.889 68.548C184.273 67.792 184.807 67.21 185.491 66.802C186.187 66.382 187.009 66.172 187.957 66.172C189.061 66.172 189.961 66.412 190.657 66.892C191.365 67.372 191.875 68.032 192.187 68.872C192.499 69.712 192.601 70.672 192.493 71.752H185.923C185.923 72.28 186.007 72.73 186.175 73.102C186.355 73.462 186.607 73.732 186.931 73.912C187.255 74.092 187.633 74.182 188.065 74.182C188.569 74.182 188.977 74.08 189.289 73.876C189.601 73.672 189.811 73.402 189.919 73.066H192.421C192.325 73.702 192.079 74.254 191.683 74.722C191.287 75.178 190.777 75.538 190.153 75.802C189.541 76.054 188.845 76.18 188.065 76.18ZM185.923 70.366L185.689 70.114H190.153L189.901 70.366C189.925 69.862 189.853 69.454 189.685 69.142C189.529 68.818 189.301 68.572 189.001 68.404C188.713 68.236 188.365 68.152 187.957 68.152C187.549 68.152 187.189 68.242 186.877 68.422C186.577 68.59 186.343 68.842 186.175 69.178C186.019 69.502 185.935 69.898 185.923 70.366ZM196.426 76L193.132 66.352H195.976L197.47 71.878L198.01 73.984H198.118L198.658 71.878L200.152 66.352H203.014L199.72 76H196.426ZM204.386 76V66.352H207.032V76H204.386ZM205.7 65.218C205.292 65.218 204.956 65.11 204.692 64.894C204.428 64.678 204.296 64.378 204.296 63.994C204.296 63.598 204.428 63.292 204.692 63.076C204.956 62.86 205.292 62.752 205.7 62.752C206.12 62.752 206.462 62.86 206.726 63.076C206.99 63.292 207.122 63.598 207.122 63.994C207.122 64.378 206.99 64.678 206.726 64.894C206.462 65.11 206.12 65.218 205.7 65.218ZM213.466 76.18C212.458 76.18 211.6 75.976 210.892 75.568C210.196 75.16 209.662 74.584 209.29 73.84C208.918 73.096 208.732 72.232 208.732 71.248C208.732 70.204 208.918 69.304 209.29 68.548C209.674 67.792 210.208 67.21 210.892 66.802C211.588 66.382 212.41 66.172 213.358 66.172C214.462 66.172 215.362 66.412 216.058 66.892C216.766 67.372 217.276 68.032 217.588 68.872C217.9 69.712 218.002 70.672 217.894 71.752H211.324C211.324 72.28 211.408 72.73 211.576 73.102C211.756 73.462 212.008 73.732 212.332 73.912C212.656 74.092 213.034 74.182 213.466 74.182C213.97 74.182 214.378 74.08 214.69 73.876C215.002 73.672 215.212 73.402 215.32 73.066H217.822C217.726 73.702 217.48 74.254 217.084 74.722C216.688 75.178 216.178 75.538 215.554 75.802C214.942 76.054 214.246 76.18 213.466 76.18ZM211.324 70.366L211.09 70.114H215.554L215.302 70.366C215.326 69.862 215.254 69.454 215.086 69.142C214.93 68.818 214.702 68.572 214.402 68.404C214.114 68.236 213.766 68.152 213.358 68.152C212.95 68.152 212.59 68.242 212.278 68.422C211.978 68.59 211.744 68.842 211.576 69.178C211.42 69.502 211.336 69.898 211.324 70.366ZM220.888 76L218.62 66.352H221.338L222.382 71.194L222.814 73.642H222.922L223.318 71.194L224.218 66.352H227.152L228.07 71.194L228.448 73.678H228.574L228.988 71.194L230.032 66.352H232.642L230.356 76H226.864L226.036 71.932L225.622 69.412H225.532L225.136 71.932L224.344 76H220.888Z" fill="#2B2B2B"/>
<circle cx="50.5" cy="55.5" r="35.5" fill="#FFF7E2"/>
<path d="M61.4703 50.2281L59.3739 51.0749C59.1064 51.1838 58.8202 51.2398 58.5314 51.2396C58.2235 51.2384 57.9192 51.1741 57.6371 51.0507C57.355 50.9273 57.1013 50.7474 56.8915 50.5221C56.6817 50.2967 56.5203 50.0308 56.4173 49.7407C56.3143 49.4505 56.2719 49.1424 56.2927 48.8352L56.451 46.5806L54.9964 44.8508C54.6844 44.4731 54.5062 44.0027 54.4896 43.5131H40.7058C38.2089 43.5131 36.1689 45.5531 36.1689 48.0606V60.7044C36.1689 63.2119 38.2089 65.2412 40.7058 65.2412H44.1589L44.0846 67.3556C44.0759 67.6554 44.1275 67.9538 44.2363 68.2333C44.3451 68.5128 44.5088 68.7676 44.7179 68.9826C44.927 69.1976 45.1771 69.3684 45.4534 69.485C45.7297 69.6016 46.0266 69.6615 46.3264 69.6612C46.7939 69.6612 47.2614 69.5019 47.6546 69.2044L52.9246 65.2412H59.0021C61.4989 65.2412 63.5389 63.2119 63.5389 60.7044V51.0643L61.4703 50.2281ZM50.382 57.7506H44.8049C44.5513 57.7506 44.3081 57.6499 44.1288 57.4705C43.9494 57.2912 43.8487 57.048 43.8487 56.7944C43.8487 56.5408 43.9494 56.2975 44.1288 56.1182C44.3081 55.9389 44.5513 55.8381 44.8049 55.8381H50.382C50.6356 55.8381 50.8788 55.9389 51.0582 56.1182C51.2375 56.2975 51.3383 56.5408 51.3383 56.7944C51.3383 57.048 51.2375 57.2912 51.0582 57.4705C50.8788 57.6499 50.6356 57.7506 50.382 57.7506ZM55.3258 52.9205H44.8071C44.5535 52.9205 44.3102 52.8197 44.1309 52.6404C43.9516 52.4611 43.8508 52.2179 43.8508 51.9642C43.8508 51.7106 43.9516 51.4674 44.1309 51.2881C44.3102 51.1087 44.5535 51.008 44.8071 51.008H55.3258C55.5794 51.008 55.8227 51.1087 56.002 51.2881C56.1813 51.4674 56.2821 51.7106 56.2821 51.9642C56.2821 52.2179 56.1813 52.4611 56.002 52.6404C55.8227 52.8197 55.5794 52.9205 55.3258 52.9205Z" fill="#C8A24B"/>
<path d="M62.0227 39.6074L63.5623 42.0713L66.3811 42.7736C66.8486 42.8905 67.0324 43.4557 66.7232 43.8255L64.8553 46.0504L65.0583 48.9478C65.0659 49.0581 65.0454 49.1686 64.9987 49.2688C64.9519 49.369 64.8805 49.4557 64.791 49.5207C64.7016 49.5857 64.5971 49.6269 64.4873 49.6404C64.3776 49.654 64.2662 49.6394 64.1637 49.5981L61.4702 48.509L58.7768 49.5981C58.6742 49.6394 58.5628 49.654 58.4531 49.6404C58.3433 49.6269 58.2388 49.5857 58.1494 49.5207C58.06 49.4557 57.9885 49.369 57.9418 49.2688C57.895 49.1686 57.8745 49.0581 57.8822 48.9478L58.0851 46.0504L56.2172 43.8255C56.1462 43.7407 56.0979 43.6393 56.0769 43.5307C56.0558 43.4221 56.0627 43.31 56.0969 43.2048C56.1311 43.0996 56.1915 43.0049 56.2724 42.9294C56.3533 42.854 56.452 42.8004 56.5593 42.7736L59.3782 42.0713L60.9177 39.6074C60.9762 39.5136 61.0577 39.4363 61.1543 39.3827C61.251 39.3291 61.3597 39.3009 61.4702 39.3009C61.5807 39.3009 61.6894 39.3291 61.7861 39.3827C61.8828 39.4363 61.9642 39.5136 62.0227 39.6074Z" fill="#C8A24B"/>
<path d="M15 111H316V235C316 240.523 311.523 245 306 245H25C19.4772 245 15 240.523 15 235V111Z" fill="#F8F8F8"/>
<path d="M26.036 225V214.794H28.962L30.628 219.848L31.314 222.452H31.412L32.098 219.848L33.75 214.794H36.676V225H34.884V220.058L34.94 216.516H34.828L33.834 219.806L32.154 225H30.572L28.906 219.806L27.898 216.516H27.786L27.842 220.058V225H26.036ZM41.9288 225.126C41.3688 225.126 40.8648 225.042 40.4168 224.874C39.9688 224.697 39.5768 224.44 39.2408 224.104C38.9142 223.768 38.6622 223.362 38.4848 222.886C38.3168 222.41 38.2328 221.873 38.2328 221.276C38.2328 220.511 38.3775 219.839 38.6668 219.26C38.9655 218.681 39.3902 218.229 39.9408 217.902C40.4915 217.575 41.1542 217.412 41.9288 217.412C42.4795 217.412 42.9788 217.501 43.4268 217.678C43.8748 217.855 44.2575 218.112 44.5748 218.448C44.9015 218.784 45.1535 219.19 45.3308 219.666C45.5082 220.133 45.5968 220.669 45.5968 221.276C45.5968 222.032 45.4475 222.699 45.1488 223.278C44.8595 223.857 44.4395 224.309 43.8888 224.636C43.3475 224.963 42.6942 225.126 41.9288 225.126ZM41.9148 223.684C42.2975 223.684 42.6335 223.595 42.9228 223.418C43.2122 223.231 43.4362 222.961 43.5948 222.606C43.7535 222.242 43.8328 221.799 43.8328 221.276C43.8328 220.884 43.7862 220.539 43.6928 220.24C43.6088 219.932 43.4828 219.675 43.3148 219.47C43.1468 219.265 42.9462 219.111 42.7128 219.008C42.4795 218.905 42.2182 218.854 41.9288 218.854C41.5462 218.854 41.2055 218.947 40.9068 219.134C40.6175 219.311 40.3935 219.582 40.2348 219.946C40.0762 220.301 39.9968 220.744 39.9968 221.276C39.9968 221.668 40.0388 222.018 40.1228 222.326C40.2162 222.625 40.3468 222.877 40.5148 223.082C40.6828 223.278 40.8835 223.427 41.1168 223.53C41.3595 223.633 41.6255 223.684 41.9148 223.684ZM47.0474 225V217.552H48.6294L48.7134 218.798H48.7694C48.9374 218.322 49.208 217.981 49.5814 217.776C49.964 217.561 50.398 217.454 50.8834 217.454C50.9674 217.454 51.042 217.454 51.1074 217.454C51.182 217.454 51.252 217.454 51.3174 217.454V219.106C51.2614 219.106 51.1914 219.106 51.1074 219.106C51.0327 219.097 50.9487 219.092 50.8554 219.092C50.4074 219.092 50.034 219.167 49.7354 219.316C49.4367 219.456 49.208 219.661 49.0494 219.932C48.9 220.203 48.816 220.534 48.7974 220.926V225H47.0474ZM55.405 225.126C54.649 225.126 54.005 224.972 53.473 224.664C52.9504 224.347 52.549 223.903 52.269 223.334C51.989 222.755 51.849 222.083 51.849 221.318C51.849 220.525 51.989 219.839 52.269 219.26C52.549 218.672 52.9504 218.219 53.473 217.902C53.9957 217.585 54.6164 217.426 55.335 217.426C56.1564 217.426 56.8284 217.608 57.351 217.972C57.883 218.327 58.2657 218.821 58.499 219.456C58.7324 220.091 58.8117 220.819 58.737 221.64H53.557C53.557 222.116 53.6317 222.517 53.781 222.844C53.9397 223.161 54.1544 223.404 54.425 223.572C54.705 223.731 55.0317 223.81 55.405 223.81C55.8437 223.81 56.1984 223.717 56.469 223.53C56.749 223.343 56.9357 223.096 57.029 222.788H58.681C58.6064 223.273 58.4197 223.693 58.121 224.048C57.8224 224.393 57.4397 224.659 56.973 224.846C56.5064 225.033 55.9837 225.126 55.405 225.126ZM53.557 220.702L53.403 220.52H57.197L57.029 220.716C57.0477 220.259 56.987 219.885 56.847 219.596C56.707 219.307 56.5064 219.092 56.245 218.952C55.9837 218.812 55.6804 218.742 55.335 218.742C54.9804 218.742 54.6724 218.817 54.411 218.966C54.1497 219.115 53.9444 219.339 53.795 219.638C53.6457 219.927 53.5664 220.282 53.557 220.702Z" fill="#C8A24B"/>
<g clip-path="url(#clip0_106_349)">
<path d="M70.0002 220.172L72.8282 217.343L74.2432 218.757L70.0002 223L65.7572 218.757L67.1722 217.343L70.0002 220.172Z" fill="#C8A24B"/>
</g>
<rect x="25.5" y="129.5" width="105" height="30" rx="15" fill="white"/>
<rect x="25.5" y="129.5" width="105" height="30" rx="15" stroke="#D5D5D5"/>
<path d="M43.972 149.108C43.188 149.108 42.532 148.988 42.004 148.748C41.484 148.508 41.092 148.172 40.828 147.74C40.564 147.308 40.428 146.816 40.42 146.264H42.04C42.048 146.592 42.12 146.876 42.256 147.116C42.4 147.356 42.616 147.544 42.904 147.68C43.192 147.816 43.564 147.884 44.02 147.884C44.388 147.884 44.708 147.84 44.98 147.752C45.252 147.664 45.46 147.528 45.604 147.344C45.756 147.152 45.832 146.912 45.832 146.624C45.832 146.4 45.796 146.216 45.724 146.072C45.652 145.92 45.532 145.796 45.364 145.7C45.196 145.596 44.972 145.508 44.692 145.436C44.412 145.364 44.068 145.292 43.66 145.22C43.156 145.14 42.712 145.036 42.328 144.908C41.952 144.772 41.636 144.608 41.38 144.416C41.124 144.224 40.932 143.992 40.804 143.72C40.676 143.44 40.612 143.108 40.612 142.724C40.612 142.196 40.744 141.74 41.008 141.356C41.28 140.972 41.664 140.676 42.16 140.468C42.656 140.252 43.248 140.144 43.936 140.144C44.616 140.144 45.196 140.252 45.676 140.468C46.164 140.684 46.54 140.988 46.804 141.38C47.068 141.764 47.204 142.212 47.212 142.724H45.604C45.596 142.412 45.516 142.156 45.364 141.956C45.212 141.748 45.008 141.596 44.752 141.5C44.496 141.404 44.204 141.356 43.876 141.356C43.54 141.356 43.252 141.404 43.012 141.5C42.772 141.588 42.588 141.72 42.46 141.896C42.332 142.064 42.268 142.272 42.268 142.52C42.268 142.792 42.332 143.008 42.46 143.168C42.596 143.32 42.824 143.444 43.144 143.54C43.472 143.636 43.92 143.732 44.488 143.828C44.872 143.892 45.24 143.972 45.592 144.068C45.944 144.164 46.264 144.308 46.552 144.5C46.84 144.684 47.064 144.94 47.224 145.268C47.392 145.588 47.476 146.004 47.476 146.516C47.476 147.028 47.344 147.48 47.08 147.872C46.816 148.264 46.424 148.568 45.904 148.784C45.384 149 44.74 149.108 43.972 149.108ZM50.8382 149C50.3262 149 49.9422 148.88 49.6862 148.64C49.4382 148.392 49.3142 148 49.3142 147.464V143.828H48.1382V142.616H49.3142V140.816L50.8142 140.66V142.616H52.1582V143.828H50.8142V147.188C50.8142 147.404 50.8622 147.556 50.9582 147.644C51.0622 147.724 51.2102 147.764 51.4022 147.764H52.1702V149H50.8382ZM55.5882 149.108C55.1962 149.108 54.8402 149.036 54.5202 148.892C54.2002 148.74 53.9242 148.524 53.6922 148.244C53.4602 147.956 53.2802 147.608 53.1522 147.2C53.0322 146.784 52.9722 146.32 52.9722 145.808C52.9722 145.112 53.0802 144.516 53.2962 144.02C53.5202 143.524 53.8282 143.148 54.2202 142.892C54.6122 142.628 55.0682 142.496 55.5882 142.496C55.9242 142.496 56.2282 142.548 56.5002 142.652C56.7802 142.756 57.0162 142.904 57.2082 143.096C57.4082 143.288 57.5562 143.512 57.6522 143.768H57.7362L57.7962 142.616H59.2122V149H57.7962L57.7362 147.836H57.6522C57.5162 148.22 57.2642 148.528 56.8962 148.76C56.5282 148.992 56.0922 149.108 55.5882 149.108ZM56.1162 147.884C56.4682 147.884 56.7602 147.808 56.9922 147.656C57.2322 147.496 57.4122 147.284 57.5322 147.02C57.6522 146.756 57.7122 146.464 57.7122 146.144V145.46C57.7122 145.132 57.6482 144.836 57.5202 144.572C57.4002 144.308 57.2202 144.1 56.9802 143.948C56.7482 143.796 56.4722 143.72 56.1522 143.72C55.7922 143.72 55.4882 143.804 55.2402 143.972C55.0002 144.132 54.8162 144.368 54.6882 144.68C54.5602 144.992 54.4962 145.368 54.4962 145.808C54.4962 146.232 54.5562 146.6 54.6762 146.912C54.8042 147.224 54.9882 147.464 55.2282 147.632C55.4682 147.8 55.7642 147.884 56.1162 147.884ZM62.9436 149C62.4316 149 62.0476 148.88 61.7916 148.64C61.5436 148.392 61.4196 148 61.4196 147.464V143.828H60.2436V142.616H61.4196V140.816L62.9196 140.66V142.616H64.2636V143.828H62.9196V147.188C62.9196 147.404 62.9676 147.556 63.0636 147.644C63.1676 147.724 63.3156 147.764 63.5076 147.764H64.2756V149H62.9436ZM68.0419 149.108C67.3939 149.108 66.8419 148.976 66.3859 148.712C65.9379 148.44 65.5939 148.06 65.3539 147.572C65.1139 147.076 64.9939 146.5 64.9939 145.844C64.9939 145.164 65.1139 144.576 65.3539 144.08C65.5939 143.576 65.9379 143.188 66.3859 142.916C66.8339 142.644 67.3659 142.508 67.9819 142.508C68.6859 142.508 69.2619 142.664 69.7099 142.976C70.1659 143.28 70.4939 143.704 70.6939 144.248C70.8939 144.792 70.9619 145.416 70.8979 146.12H66.4579C66.4579 146.528 66.5219 146.872 66.6499 147.152C66.7859 147.424 66.9699 147.632 67.2019 147.776C67.4419 147.912 67.7219 147.98 68.0419 147.98C68.4179 147.98 68.7219 147.9 68.9539 147.74C69.1939 147.58 69.3539 147.368 69.4339 147.104H70.8499C70.7859 147.52 70.6259 147.88 70.3699 148.184C70.1139 148.48 69.7859 148.708 69.3859 148.868C68.9859 149.028 68.5379 149.108 68.0419 149.108ZM66.4579 145.316L66.3259 145.16H69.5779L69.4339 145.328C69.4499 144.936 69.3979 144.616 69.2779 144.368C69.1579 144.12 68.9859 143.936 68.7619 143.816C68.5379 143.696 68.2779 143.636 67.9819 143.636C67.6779 143.636 67.4139 143.7 67.1899 143.828C66.9659 143.956 66.7899 144.148 66.6619 144.404C66.5339 144.652 66.4659 144.956 66.4579 145.316ZM76.3378 149L74.1178 142.616H75.7258L76.7938 146.3L77.2378 147.848H77.2978L77.7418 146.3L78.8098 142.616H80.4298L78.2098 149H76.3378ZM83.4705 149L86.4705 140.252H88.7265L91.7265 149H90.0705L87.9825 142.58L87.6465 141.464H87.5625L87.2145 142.58L85.1265 149H83.4705ZM85.6185 147.08L85.9305 145.844H89.2665L89.5785 147.08H85.6185ZM92.7649 149V142.616H94.1209L94.1929 143.684H94.2409C94.3849 143.276 94.6169 142.984 94.9369 142.808C95.2649 142.624 95.6369 142.532 96.0529 142.532C96.1249 142.532 96.1889 142.532 96.2449 142.532C96.3089 142.532 96.3689 142.532 96.4249 142.532V143.948C96.3769 143.948 96.3169 143.948 96.2449 143.948C96.1809 143.94 96.1089 143.936 96.0289 143.936C95.6449 143.936 95.3249 144 95.0689 144.128C94.8129 144.248 94.6169 144.424 94.4809 144.656C94.3529 144.888 94.2809 145.172 94.2649 145.508V149H92.7649ZM100.085 149.108C99.6047 149.108 99.1727 149.036 98.7887 148.892C98.4047 148.74 98.0687 148.52 97.7807 148.232C97.5007 147.944 97.2847 147.596 97.1327 147.188C96.9887 146.78 96.9167 146.32 96.9167 145.808C96.9167 145.152 97.0407 144.576 97.2887 144.08C97.5447 143.584 97.9087 143.196 98.3807 142.916C98.8527 142.636 99.4207 142.496 100.085 142.496C100.557 142.496 100.985 142.572 101.369 142.724C101.753 142.876 102.081 143.096 102.353 143.384C102.633 143.672 102.849 144.02 103.001 144.428C103.153 144.828 103.229 145.288 103.229 145.808C103.229 146.456 103.101 147.028 102.845 147.524C102.597 148.02 102.237 148.408 101.765 148.688C101.301 148.968 100.741 149.108 100.085 149.108ZM100.073 147.872C100.401 147.872 100.689 147.796 100.937 147.644C101.185 147.484 101.377 147.252 101.513 146.948C101.649 146.636 101.717 146.256 101.717 145.808C101.717 145.472 101.677 145.176 101.597 144.92C101.525 144.656 101.417 144.436 101.273 144.26C101.129 144.084 100.957 143.952 100.757 143.864C100.557 143.776 100.333 143.732 100.085 143.732C99.7567 143.732 99.4647 143.812 99.2087 143.972C98.9607 144.124 98.7687 144.356 98.6327 144.668C98.4967 144.972 98.4287 145.352 98.4287 145.808C98.4287 146.144 98.4647 146.444 98.5367 146.708C98.6167 146.964 98.7287 147.18 98.8727 147.356C99.0167 147.524 99.1887 147.652 99.3887 147.74C99.5967 147.828 99.8247 147.872 100.073 147.872ZM104.472 149V142.616H105.828L105.9 143.684H105.948C106.092 143.276 106.324 142.984 106.644 142.808C106.972 142.624 107.344 142.532 107.76 142.532C107.832 142.532 107.896 142.532 107.952 142.532C108.016 142.532 108.076 142.532 108.132 142.532V143.948C108.084 143.948 108.024 143.948 107.952 143.948C107.888 143.94 107.816 143.936 107.736 143.936C107.352 143.936 107.032 144 106.776 144.128C106.52 144.248 106.324 144.424 106.188 144.656C106.06 144.888 105.988 145.172 105.972 145.508V149H104.472ZM111.287 149.108C110.895 149.108 110.539 149.036 110.219 148.892C109.899 148.74 109.623 148.524 109.391 148.244C109.159 147.956 108.979 147.608 108.851 147.2C108.731 146.784 108.671 146.32 108.671 145.808C108.671 145.112 108.779 144.516 108.995 144.02C109.219 143.524 109.527 143.148 109.919 142.892C110.311 142.628 110.767 142.496 111.287 142.496C111.623 142.496 111.927 142.548 112.199 142.652C112.479 142.756 112.715 142.904 112.907 143.096C113.107 143.288 113.255 143.512 113.351 143.768H113.435L113.495 142.616H114.911V149H113.495L113.435 147.836H113.351C113.215 148.22 112.963 148.528 112.595 148.76C112.227 148.992 111.791 149.108 111.287 149.108ZM111.815 147.884C112.167 147.884 112.459 147.808 112.691 147.656C112.931 147.496 113.111 147.284 113.231 147.02C113.351 146.756 113.411 146.464 113.411 146.144V145.46C113.411 145.132 113.347 144.836 113.219 144.572C113.099 144.308 112.919 144.1 112.679 143.948C112.447 143.796 112.171 143.72 111.851 143.72C111.491 143.72 111.187 143.804 110.939 143.972C110.699 144.132 110.515 144.368 110.387 144.68C110.259 144.992 110.195 145.368 110.195 145.808C110.195 146.232 110.255 146.6 110.375 146.912C110.503 147.224 110.687 147.464 110.927 147.632C111.167 147.8 111.463 147.884 111.815 147.884Z" fill="#2B2B2B"/>
<rect x="25.5" y="165.5" width="271" height="30" rx="15" fill="white"/>
<rect x="25.5" y="165.5" width="271" height="30" rx="15" stroke="#D5D5D5"/>
<path d="M44.824 185.108C44.168 185.108 43.572 185.008 43.036 184.808C42.508 184.6 42.052 184.304 41.668 183.92C41.284 183.536 40.988 183.068 40.78 182.516C40.58 181.956 40.48 181.324 40.48 180.62C40.48 179.916 40.58 179.288 40.78 178.736C40.988 178.184 41.284 177.716 41.668 177.332C42.052 176.948 42.508 176.656 43.036 176.456C43.572 176.248 44.168 176.144 44.824 176.144C45.56 176.144 46.216 176.272 46.792 176.528C47.368 176.784 47.836 177.144 48.196 177.608C48.556 178.064 48.776 178.604 48.856 179.228H47.236C47.164 178.884 47.02 178.584 46.804 178.328C46.588 178.072 46.312 177.872 45.976 177.728C45.64 177.584 45.256 177.512 44.824 177.512C44.272 177.512 43.792 177.632 43.384 177.872C42.984 178.104 42.672 178.452 42.448 178.916C42.224 179.38 42.112 179.948 42.112 180.62C42.112 181.124 42.176 181.572 42.304 181.964C42.432 182.356 42.612 182.684 42.844 182.948C43.084 183.212 43.368 183.412 43.696 183.548C44.032 183.676 44.408 183.74 44.824 183.74C45.248 183.74 45.628 183.668 45.964 183.524C46.3 183.38 46.58 183.18 46.804 182.924C47.028 182.66 47.172 182.356 47.236 182.012H48.856C48.784 182.628 48.564 183.172 48.196 183.644C47.836 184.108 47.368 184.468 46.792 184.724C46.216 184.98 45.56 185.108 44.824 185.108ZM49.9304 187.004V185.768H50.6504C50.8344 185.768 50.9904 185.744 51.1184 185.696C51.2464 185.648 51.3544 185.572 51.4424 185.468C51.5304 185.364 51.6064 185.232 51.6704 185.072L52.0064 184.196V184.832L49.4024 178.616H51.0584L52.1984 181.928L52.5944 183.128H52.6544L53.0264 181.928L54.0944 178.616H55.7024L53.1344 185.42C52.9824 185.828 52.7984 186.148 52.5824 186.38C52.3744 186.612 52.1304 186.772 51.8504 186.86C51.5784 186.956 51.2664 187.004 50.9144 187.004H49.9304ZM60.3189 185.12C59.9829 185.12 59.6749 185.068 59.3949 184.964C59.1149 184.852 58.8749 184.7 58.6749 184.508C58.4829 184.316 58.3429 184.096 58.2549 183.848H58.1709L58.1109 185H56.6829V176.252H58.1829V179.78H58.2549C58.3909 179.396 58.6429 179.088 59.0109 178.856C59.3789 178.616 59.8149 178.496 60.3189 178.496C60.7109 178.496 61.0669 178.572 61.3869 178.724C61.7069 178.876 61.9829 179.096 62.2149 179.384C62.4469 179.664 62.6229 180.008 62.7429 180.416C62.8709 180.824 62.9349 181.288 62.9349 181.808C62.9349 182.496 62.8229 183.088 62.5989 183.584C62.3829 184.08 62.0789 184.46 61.6869 184.724C61.2949 184.988 60.8389 185.12 60.3189 185.12ZM59.7549 183.896C60.1069 183.896 60.4069 183.812 60.6549 183.644C60.9029 183.476 61.0869 183.236 61.2069 182.924C61.3349 182.604 61.3989 182.232 61.3989 181.808C61.3989 181.488 61.3629 181.2 61.2909 180.944C61.2269 180.688 61.1269 180.472 60.9909 180.296C60.8549 180.112 60.6869 179.972 60.4869 179.876C60.2869 179.772 60.0549 179.72 59.7909 179.72C59.4389 179.72 59.1429 179.8 58.9029 179.96C58.6629 180.112 58.4829 180.324 58.3629 180.596C58.2429 180.86 58.1829 181.152 58.1829 181.472V182.156C58.1829 182.484 58.2469 182.78 58.3749 183.044C58.5029 183.3 58.6829 183.508 58.9149 183.668C59.1469 183.82 59.4269 183.896 59.7549 183.896ZM67.0693 185.108C66.4213 185.108 65.8693 184.976 65.4133 184.712C64.9653 184.44 64.6213 184.06 64.3813 183.572C64.1413 183.076 64.0213 182.5 64.0213 181.844C64.0213 181.164 64.1413 180.576 64.3813 180.08C64.6213 179.576 64.9653 179.188 65.4133 178.916C65.8613 178.644 66.3933 178.508 67.0093 178.508C67.7133 178.508 68.2893 178.664 68.7373 178.976C69.1933 179.28 69.5213 179.704 69.7213 180.248C69.9213 180.792 69.9893 181.416 69.9253 182.12H65.4853C65.4853 182.528 65.5493 182.872 65.6773 183.152C65.8133 183.424 65.9973 183.632 66.2293 183.776C66.4693 183.912 66.7493 183.98 67.0693 183.98C67.4453 183.98 67.7493 183.9 67.9813 183.74C68.2213 183.58 68.3813 183.368 68.4613 183.104H69.8773C69.8133 183.52 69.6533 183.88 69.3973 184.184C69.1413 184.48 68.8133 184.708 68.4133 184.868C68.0133 185.028 67.5653 185.108 67.0693 185.108ZM65.4853 181.316L65.3533 181.16H68.6053L68.4613 181.328C68.4773 180.936 68.4253 180.616 68.3053 180.368C68.1853 180.12 68.0133 179.936 67.7893 179.816C67.5653 179.696 67.3053 179.636 67.0093 179.636C66.7053 179.636 66.4413 179.7 66.2173 179.828C65.9933 179.956 65.8173 180.148 65.6893 180.404C65.5613 180.652 65.4933 180.956 65.4853 181.316ZM71.1204 185V178.616H72.4764L72.5484 179.684H72.5964C72.7404 179.276 72.9724 178.984 73.2924 178.808C73.6204 178.624 73.9924 178.532 74.4084 178.532C74.4804 178.532 74.5444 178.532 74.6004 178.532C74.6644 178.532 74.7244 178.532 74.7804 178.532V179.948C74.7324 179.948 74.6724 179.948 74.6004 179.948C74.5364 179.94 74.4644 179.936 74.3844 179.936C74.0004 179.936 73.6804 180 73.4244 180.128C73.1684 180.248 72.9724 180.424 72.8364 180.656C72.7084 180.888 72.6364 181.172 72.6204 181.508V185H71.1204ZM78.5169 185V176.252H84.7449V177.62H79.8249L80.1009 177.344V185H78.5169ZM79.6689 181.412V180.116H84.2649V181.412H79.6689ZM85.5345 185V178.616H86.8905L86.9625 179.684H87.0105C87.1545 179.276 87.3865 178.984 87.7065 178.808C88.0345 178.624 88.4065 178.532 88.8225 178.532C88.8945 178.532 88.9585 178.532 89.0145 178.532C89.0785 178.532 89.1385 178.532 89.1945 178.532V179.948C89.1465 179.948 89.0865 179.948 89.0145 179.948C88.9505 179.94 88.8785 179.936 88.7985 179.936C88.4145 179.936 88.0945 180 87.8385 180.128C87.5825 180.248 87.3865 180.424 87.2505 180.656C87.1225 180.888 87.0505 181.172 87.0345 181.508V185H85.5345ZM92.3499 185.108C91.9579 185.108 91.6019 185.036 91.2819 184.892C90.9619 184.74 90.6859 184.524 90.4539 184.244C90.2219 183.956 90.0419 183.608 89.9139 183.2C89.7939 182.784 89.7339 182.32 89.7339 181.808C89.7339 181.112 89.8419 180.516 90.0579 180.02C90.2819 179.524 90.5899 179.148 90.9819 178.892C91.3739 178.628 91.8299 178.496 92.3499 178.496C92.6859 178.496 92.9899 178.548 93.2619 178.652C93.5419 178.756 93.7779 178.904 93.9699 179.096C94.1699 179.288 94.3179 179.512 94.4139 179.768H94.4979L94.5579 178.616H95.9739V185H94.5579L94.4979 183.836H94.4139C94.2779 184.22 94.0259 184.528 93.6579 184.76C93.2899 184.992 92.8539 185.108 92.3499 185.108ZM92.8779 183.884C93.2299 183.884 93.5219 183.808 93.7539 183.656C93.9939 183.496 94.1739 183.284 94.2939 183.02C94.4139 182.756 94.4739 182.464 94.4739 182.144V181.46C94.4739 181.132 94.4099 180.836 94.2819 180.572C94.1619 180.308 93.9819 180.1 93.7419 179.948C93.5099 179.796 93.2339 179.72 92.9139 179.72C92.5539 179.72 92.2499 179.804 92.0019 179.972C91.7619 180.132 91.5779 180.368 91.4499 180.68C91.3219 180.992 91.2579 181.368 91.2579 181.808C91.2579 182.232 91.3179 182.6 91.4379 182.912C91.5659 183.224 91.7499 183.464 91.9899 183.632C92.2299 183.8 92.5259 183.884 92.8779 183.884ZM99.7653 185.108C99.2853 185.108 98.8733 185.012 98.5293 184.82C98.1853 184.628 97.9213 184.344 97.7373 183.968C97.5613 183.584 97.4733 183.12 97.4733 182.576V178.616H98.9733V182.18C98.9733 182.54 99.0213 182.848 99.1173 183.104C99.2133 183.352 99.3613 183.544 99.5613 183.68C99.7613 183.816 100.021 183.884 100.341 183.884C100.661 183.884 100.937 183.804 101.169 183.644C101.409 183.484 101.593 183.272 101.721 183.008C101.849 182.736 101.913 182.432 101.913 182.096V178.616H103.413V185H101.973L101.913 183.764H101.841C101.681 184.196 101.413 184.528 101.037 184.76C100.669 184.992 100.245 185.108 99.7653 185.108ZM107.315 185.108C106.923 185.108 106.567 185.036 106.247 184.892C105.927 184.74 105.651 184.524 105.419 184.244C105.187 183.956 105.007 183.608 104.879 183.2C104.759 182.784 104.699 182.32 104.699 181.808C104.699 181.112 104.807 180.516 105.023 180.02C105.247 179.524 105.555 179.148 105.947 178.892C106.339 178.628 106.795 178.496 107.315 178.496C107.651 178.496 107.955 178.548 108.227 178.652C108.507 178.756 108.743 178.904 108.935 179.096C109.135 179.288 109.283 179.512 109.379 179.768H109.439V176.252H110.939V185H109.523L109.463 183.836H109.379C109.243 184.22 108.991 184.528 108.623 184.76C108.255 184.992 107.819 185.108 107.315 185.108ZM107.843 183.884C108.195 183.884 108.487 183.808 108.719 183.656C108.959 183.496 109.139 183.284 109.259 183.02C109.379 182.756 109.439 182.464 109.439 182.144V181.46C109.439 181.132 109.375 180.836 109.247 180.572C109.127 180.308 108.947 180.1 108.707 179.948C108.475 179.796 108.199 179.72 107.879 179.72C107.519 179.72 107.215 179.804 106.967 179.972C106.727 180.132 106.543 180.368 106.415 180.68C106.287 180.992 106.223 181.368 106.223 181.808C106.223 182.232 106.283 182.6 106.403 182.912C106.531 183.224 106.715 183.464 106.955 183.632C107.195 183.8 107.491 183.884 107.843 183.884ZM114.595 185L117.595 176.252H119.851L122.851 185H121.195L119.107 178.58L118.771 177.464H118.687L118.339 178.58L116.251 185H114.595ZM116.743 183.08L117.055 181.844H120.391L120.703 183.08H116.743ZM123.89 187.004V178.616H125.318L125.378 179.78H125.462C125.598 179.396 125.85 179.088 126.218 178.856C126.586 178.616 127.022 178.496 127.526 178.496C127.918 178.496 128.274 178.572 128.594 178.724C128.914 178.876 129.19 179.096 129.422 179.384C129.654 179.664 129.83 180.008 129.95 180.416C130.078 180.824 130.142 181.288 130.142 181.808C130.142 182.496 130.03 183.088 129.806 183.584C129.59 184.08 129.286 184.46 128.894 184.724C128.502 184.988 128.046 185.12 127.526 185.12C127.19 185.12 126.882 185.068 126.602 184.964C126.322 184.852 126.082 184.7 125.882 184.508C125.69 184.316 125.55 184.096 125.462 183.848H125.39V187.004H123.89ZM126.962 183.896C127.314 183.896 127.614 183.812 127.862 183.644C128.11 183.476 128.294 183.236 128.414 182.924C128.542 182.604 128.606 182.232 128.606 181.808C128.606 181.376 128.546 181.004 128.426 180.692C128.306 180.38 128.126 180.14 127.886 179.972C127.646 179.804 127.35 179.72 126.998 179.72C126.646 179.72 126.35 179.8 126.11 179.96C125.87 180.112 125.69 180.324 125.57 180.596C125.45 180.86 125.39 181.152 125.39 181.472V182.156C125.39 182.484 125.454 182.78 125.582 183.044C125.71 183.3 125.89 183.508 126.122 183.668C126.354 183.82 126.634 183.896 126.962 183.896ZM131.413 187.004V178.616H132.841L132.901 179.78H132.985C133.121 179.396 133.373 179.088 133.741 178.856C134.109 178.616 134.545 178.496 135.049 178.496C135.441 178.496 135.797 178.572 136.117 178.724C136.437 178.876 136.713 179.096 136.945 179.384C137.177 179.664 137.353 180.008 137.473 180.416C137.601 180.824 137.665 181.288 137.665 181.808C137.665 182.496 137.553 183.088 137.329 183.584C137.113 184.08 136.809 184.46 136.417 184.724C136.025 184.988 135.569 185.12 135.049 185.12C134.713 185.12 134.405 185.068 134.125 184.964C133.845 184.852 133.605 184.7 133.405 184.508C133.213 184.316 133.073 184.096 132.985 183.848H132.913V187.004H131.413ZM134.485 183.896C134.837 183.896 135.137 183.812 135.385 183.644C135.633 183.476 135.817 183.236 135.937 182.924C136.065 182.604 136.129 182.232 136.129 181.808C136.129 181.376 136.069 181.004 135.949 180.692C135.829 180.38 135.649 180.14 135.409 179.972C135.169 179.804 134.873 179.72 134.521 179.72C134.169 179.72 133.873 179.8 133.633 179.96C133.393 180.112 133.213 180.324 133.093 180.596C132.973 180.86 132.913 181.152 132.913 181.472V182.156C132.913 182.484 132.977 182.78 133.105 183.044C133.233 183.3 133.413 183.508 133.645 183.668C133.877 183.82 134.157 183.896 134.485 183.896ZM141.8 185.108C141.152 185.108 140.6 184.976 140.144 184.712C139.696 184.44 139.352 184.06 139.112 183.572C138.872 183.076 138.752 182.5 138.752 181.844C138.752 181.164 138.872 180.576 139.112 180.08C139.352 179.576 139.696 179.188 140.144 178.916C140.592 178.644 141.124 178.508 141.74 178.508C142.444 178.508 143.02 178.664 143.468 178.976C143.924 179.28 144.252 179.704 144.452 180.248C144.652 180.792 144.72 181.416 144.656 182.12H140.216C140.216 182.528 140.28 182.872 140.408 183.152C140.544 183.424 140.728 183.632 140.96 183.776C141.2 183.912 141.48 183.98 141.8 183.98C142.176 183.98 142.48 183.9 142.712 183.74C142.952 183.58 143.112 183.368 143.192 183.104H144.608C144.544 183.52 144.384 183.88 144.128 184.184C143.872 184.48 143.544 184.708 143.144 184.868C142.744 185.028 142.296 185.108 141.8 185.108ZM140.216 181.316L140.084 181.16H143.336L143.192 181.328C143.208 180.936 143.156 180.616 143.036 180.368C142.916 180.12 142.744 179.936 142.52 179.816C142.296 179.696 142.036 179.636 141.74 179.636C141.436 179.636 141.172 179.7 140.948 179.828C140.724 179.956 140.548 180.148 140.42 180.404C140.292 180.652 140.224 180.956 140.216 181.316ZM148.248 185.108C147.856 185.108 147.5 185.036 147.18 184.892C146.86 184.74 146.584 184.524 146.352 184.244C146.12 183.956 145.94 183.608 145.812 183.2C145.692 182.784 145.632 182.32 145.632 181.808C145.632 181.112 145.74 180.516 145.956 180.02C146.18 179.524 146.488 179.148 146.88 178.892C147.272 178.628 147.728 178.496 148.248 178.496C148.584 178.496 148.888 178.548 149.16 178.652C149.44 178.756 149.676 178.904 149.868 179.096C150.068 179.288 150.216 179.512 150.312 179.768H150.396L150.456 178.616H151.872V185H150.456L150.396 183.836H150.312C150.176 184.22 149.924 184.528 149.556 184.76C149.188 184.992 148.752 185.108 148.248 185.108ZM148.776 183.884C149.128 183.884 149.42 183.808 149.652 183.656C149.892 183.496 150.072 183.284 150.192 183.02C150.312 182.756 150.372 182.464 150.372 182.144V181.46C150.372 181.132 150.308 180.836 150.18 180.572C150.06 180.308 149.88 180.1 149.64 179.948C149.408 179.796 149.132 179.72 148.812 179.72C148.452 179.72 148.148 179.804 147.9 179.972C147.66 180.132 147.476 180.368 147.348 180.68C147.22 180.992 147.156 181.368 147.156 181.808C147.156 182.232 147.216 182.6 147.336 182.912C147.464 183.224 147.648 183.464 147.888 183.632C148.128 183.8 148.424 183.884 148.776 183.884ZM153.48 185V176.252H154.98V185H153.48ZM159.21 185V176.252H160.71V179.828H160.782C160.966 179.38 161.246 179.048 161.622 178.832C161.998 178.608 162.418 178.496 162.882 178.496C163.202 178.496 163.498 178.548 163.77 178.652C164.05 178.748 164.29 178.904 164.49 179.12C164.698 179.328 164.858 179.604 164.97 179.948C165.09 180.284 165.15 180.692 165.15 181.172V185H163.65V181.496C163.65 181.096 163.602 180.768 163.506 180.512C163.41 180.248 163.262 180.052 163.062 179.924C162.87 179.796 162.618 179.732 162.306 179.732C161.97 179.732 161.682 179.812 161.442 179.972C161.21 180.132 161.03 180.344 160.902 180.608C160.774 180.872 160.71 181.164 160.71 181.484V185H159.21ZM169.014 185.108C168.622 185.108 168.266 185.036 167.946 184.892C167.626 184.74 167.35 184.524 167.118 184.244C166.886 183.956 166.706 183.608 166.578 183.2C166.458 182.784 166.398 182.32 166.398 181.808C166.398 181.112 166.506 180.516 166.722 180.02C166.946 179.524 167.254 179.148 167.646 178.892C168.038 178.628 168.494 178.496 169.014 178.496C169.35 178.496 169.654 178.548 169.926 178.652C170.206 178.756 170.442 178.904 170.634 179.096C170.834 179.288 170.982 179.512 171.078 179.768H171.162L171.222 178.616H172.638V185H171.222L171.162 183.836H171.078C170.942 184.22 170.69 184.528 170.322 184.76C169.954 184.992 169.518 185.108 169.014 185.108ZM169.542 183.884C169.894 183.884 170.186 183.808 170.418 183.656C170.658 183.496 170.838 183.284 170.958 183.02C171.078 182.756 171.138 182.464 171.138 182.144V181.46C171.138 181.132 171.074 180.836 170.946 180.572C170.826 180.308 170.646 180.1 170.406 179.948C170.174 179.796 169.898 179.72 169.578 179.72C169.218 179.72 168.914 179.804 168.666 179.972C168.426 180.132 168.242 180.368 168.114 180.68C167.986 180.992 167.922 181.368 167.922 181.808C167.922 182.232 167.982 182.6 168.102 182.912C168.23 183.224 168.414 183.464 168.654 183.632C168.894 183.8 169.19 183.884 169.542 183.884ZM175.853 185L173.633 178.616H175.241L176.309 182.3L176.753 183.848H176.813L177.257 182.3L178.325 178.616H179.945L177.725 185H175.853ZM183.46 185.108C182.812 185.108 182.26 184.976 181.804 184.712C181.356 184.44 181.012 184.06 180.772 183.572C180.532 183.076 180.412 182.5 180.412 181.844C180.412 181.164 180.532 180.576 180.772 180.08C181.012 179.576 181.356 179.188 181.804 178.916C182.252 178.644 182.784 178.508 183.4 178.508C184.104 178.508 184.68 178.664 185.128 178.976C185.584 179.28 185.912 179.704 186.112 180.248C186.312 180.792 186.38 181.416 186.316 182.12H181.876C181.876 182.528 181.94 182.872 182.068 183.152C182.204 183.424 182.388 183.632 182.62 183.776C182.86 183.912 183.14 183.98 183.46 183.98C183.836 183.98 184.14 183.9 184.372 183.74C184.612 183.58 184.772 183.368 184.852 183.104H186.268C186.204 183.52 186.044 183.88 185.788 184.184C185.532 184.48 185.204 184.708 184.804 184.868C184.404 185.028 183.956 185.108 183.46 185.108ZM181.876 181.316L181.744 181.16H184.996L184.852 181.328C184.868 180.936 184.816 180.616 184.696 180.368C184.576 180.12 184.404 179.936 184.18 179.816C183.956 179.696 183.696 179.636 183.4 179.636C183.096 179.636 182.832 179.7 182.608 179.828C182.384 179.956 182.208 180.148 182.08 180.404C181.952 180.652 181.884 180.956 181.876 181.316ZM192.488 185.12C192.064 185.12 191.684 185.072 191.348 184.976C191.02 184.872 190.736 184.732 190.496 184.556C190.264 184.372 190.08 184.156 189.944 183.908C189.816 183.652 189.748 183.368 189.74 183.056H191.216C191.24 183.288 191.308 183.476 191.42 183.62C191.532 183.764 191.68 183.872 191.864 183.944C192.056 184.008 192.276 184.04 192.524 184.04C192.908 184.04 193.196 183.972 193.388 183.836C193.588 183.692 193.688 183.496 193.688 183.248C193.688 183.048 193.64 182.896 193.544 182.792C193.456 182.68 193.312 182.596 193.112 182.54C192.92 182.476 192.66 182.42 192.332 182.372C191.788 182.292 191.336 182.184 190.976 182.048C190.616 181.904 190.348 181.708 190.172 181.46C189.996 181.212 189.908 180.884 189.908 180.476C189.908 180.076 190.016 179.728 190.232 179.432C190.456 179.136 190.764 178.908 191.156 178.748C191.548 178.58 192.004 178.496 192.524 178.496C193.036 178.496 193.48 178.576 193.856 178.736C194.232 178.896 194.524 179.124 194.732 179.42C194.948 179.716 195.064 180.06 195.08 180.452H193.604C193.604 180.244 193.552 180.076 193.448 179.948C193.352 179.82 193.22 179.724 193.052 179.66C192.892 179.596 192.704 179.564 192.488 179.564C192.152 179.564 191.888 179.636 191.696 179.78C191.504 179.916 191.408 180.104 191.408 180.344C191.408 180.52 191.456 180.664 191.552 180.776C191.656 180.88 191.82 180.964 192.044 181.028C192.268 181.092 192.556 181.148 192.908 181.196C193.42 181.268 193.844 181.372 194.18 181.508C194.524 181.644 194.78 181.84 194.948 182.096C195.124 182.352 195.212 182.692 195.212 183.116C195.212 183.54 195.096 183.904 194.864 184.208C194.64 184.504 194.324 184.732 193.916 184.892C193.508 185.044 193.032 185.12 192.488 185.12ZM198.565 185C198.053 185 197.669 184.88 197.413 184.64C197.165 184.392 197.041 184 197.041 183.464V179.828H195.865V178.616H197.041V176.816L198.541 176.66V178.616H199.885V179.828H198.541V183.188C198.541 183.404 198.589 183.556 198.685 183.644C198.789 183.724 198.937 183.764 199.129 183.764H199.897V185H198.565ZM201.105 185V178.616H202.461L202.533 179.684H202.581C202.725 179.276 202.957 178.984 203.277 178.808C203.605 178.624 203.977 178.532 204.393 178.532C204.465 178.532 204.529 178.532 204.585 178.532C204.649 178.532 204.709 178.532 204.765 178.532V179.948C204.717 179.948 204.657 179.948 204.585 179.948C204.521 179.94 204.449 179.936 204.369 179.936C203.985 179.936 203.665 180 203.409 180.128C203.153 180.248 202.957 180.424 202.821 180.656C202.693 180.888 202.621 181.172 202.605 181.508V185H201.105ZM207.92 185.108C207.528 185.108 207.172 185.036 206.852 184.892C206.532 184.74 206.256 184.524 206.024 184.244C205.792 183.956 205.612 183.608 205.484 183.2C205.364 182.784 205.304 182.32 205.304 181.808C205.304 181.112 205.412 180.516 205.628 180.02C205.852 179.524 206.16 179.148 206.552 178.892C206.944 178.628 207.4 178.496 207.92 178.496C208.256 178.496 208.56 178.548 208.832 178.652C209.112 178.756 209.348 178.904 209.54 179.096C209.74 179.288 209.888 179.512 209.984 179.768H210.068L210.128 178.616H211.544V185H210.128L210.068 183.836H209.984C209.848 184.22 209.596 184.528 209.228 184.76C208.86 184.992 208.424 185.108 207.92 185.108ZM208.448 183.884C208.8 183.884 209.092 183.808 209.324 183.656C209.564 183.496 209.744 183.284 209.864 183.02C209.984 182.756 210.044 182.464 210.044 182.144V181.46C210.044 181.132 209.98 180.836 209.852 180.572C209.732 180.308 209.552 180.1 209.312 179.948C209.08 179.796 208.804 179.72 208.484 179.72C208.124 179.72 207.82 179.804 207.572 179.972C207.332 180.132 207.148 180.368 207.02 180.68C206.892 180.992 206.828 181.368 206.828 181.808C206.828 182.232 206.888 182.6 207.008 182.912C207.136 183.224 207.32 183.464 207.56 183.632C207.8 183.8 208.096 183.884 208.448 183.884ZM215.276 185C214.764 185 214.38 184.88 214.124 184.64C213.876 184.392 213.752 184 213.752 183.464V179.828H212.576V178.616H213.752V176.816L215.252 176.66V178.616H216.596V179.828H215.252V183.188C215.252 183.404 215.3 183.556 215.396 183.644C215.5 183.724 215.648 183.764 215.84 183.764H216.608V185H215.276ZM220.374 185.108C219.726 185.108 219.174 184.976 218.718 184.712C218.27 184.44 217.926 184.06 217.686 183.572C217.446 183.076 217.326 182.5 217.326 181.844C217.326 181.164 217.446 180.576 217.686 180.08C217.926 179.576 218.27 179.188 218.718 178.916C219.166 178.644 219.698 178.508 220.314 178.508C221.018 178.508 221.594 178.664 222.042 178.976C222.498 179.28 222.826 179.704 223.026 180.248C223.226 180.792 223.294 181.416 223.23 182.12H218.79C218.79 182.528 218.854 182.872 218.982 183.152C219.118 183.424 219.302 183.632 219.534 183.776C219.774 183.912 220.054 183.98 220.374 183.98C220.75 183.98 221.054 183.9 221.286 183.74C221.526 183.58 221.686 183.368 221.766 183.104H223.182C223.118 183.52 222.958 183.88 222.702 184.184C222.446 184.48 222.118 184.708 221.718 184.868C221.318 185.028 220.87 185.108 220.374 185.108ZM218.79 181.316L218.658 181.16H221.91L221.766 181.328C221.782 180.936 221.73 180.616 221.61 180.368C221.49 180.12 221.318 179.936 221.094 179.816C220.87 179.696 220.61 179.636 220.314 179.636C220.01 179.636 219.746 179.7 219.522 179.828C219.298 179.956 219.122 180.148 218.994 180.404C218.866 180.652 218.798 180.956 218.79 181.316ZM227.11 187.124C226.574 187.124 226.11 187.044 225.718 186.884C225.326 186.732 225.014 186.512 224.782 186.224C224.558 185.944 224.43 185.616 224.398 185.24H225.838C225.87 185.4 225.942 185.54 226.054 185.66C226.174 185.78 226.326 185.872 226.51 185.936C226.694 186.008 226.906 186.044 227.146 186.044C227.53 186.044 227.838 185.988 228.07 185.876C228.302 185.772 228.47 185.612 228.574 185.396C228.686 185.18 228.742 184.912 228.742 184.592V183.56H228.67C228.542 183.904 228.302 184.188 227.95 184.412C227.598 184.628 227.182 184.736 226.702 184.736C226.326 184.736 225.986 184.664 225.682 184.52C225.378 184.376 225.114 184.172 224.89 183.908C224.674 183.636 224.506 183.308 224.386 182.924C224.266 182.54 224.206 182.104 224.206 181.616C224.206 180.96 224.31 180.4 224.518 179.936C224.726 179.472 225.018 179.116 225.394 178.868C225.77 178.62 226.206 178.496 226.702 178.496C227.166 178.496 227.574 178.6 227.926 178.808C228.286 179.016 228.534 179.3 228.67 179.66H228.754L228.802 178.616H230.242V184.328C230.242 185 230.114 185.54 229.858 185.948C229.602 186.364 229.238 186.664 228.766 186.848C228.302 187.032 227.75 187.124 227.11 187.124ZM227.254 183.512C227.574 183.512 227.842 183.44 228.058 183.296C228.282 183.152 228.45 182.96 228.562 182.72C228.674 182.48 228.73 182.216 228.73 181.928V181.304C228.73 180.992 228.67 180.72 228.55 180.488C228.438 180.248 228.274 180.06 228.058 179.924C227.842 179.78 227.582 179.708 227.278 179.708C226.942 179.708 226.658 179.788 226.426 179.948C226.202 180.1 226.03 180.32 225.91 180.608C225.79 180.888 225.73 181.224 225.73 181.616C225.73 182 225.786 182.336 225.898 182.624C226.018 182.904 226.19 183.124 226.414 183.284C226.638 183.436 226.918 183.512 227.254 183.512ZM231.855 185V178.616H233.355V185H231.855ZM232.611 177.752C232.371 177.752 232.171 177.688 232.011 177.56C231.859 177.424 231.783 177.244 231.783 177.02C231.783 176.788 231.859 176.608 232.011 176.48C232.171 176.352 232.371 176.288 232.611 176.288C232.851 176.288 233.047 176.352 233.199 176.48C233.359 176.608 233.439 176.788 233.439 177.02C233.439 177.244 233.359 177.424 233.199 177.56C233.047 177.688 232.851 177.752 232.611 177.752ZM237.744 185.108C237.272 185.108 236.844 185.032 236.46 184.88C236.076 184.72 235.744 184.496 235.464 184.208C235.184 183.912 234.972 183.564 234.828 183.164C234.684 182.756 234.612 182.304 234.612 181.808C234.612 181.312 234.684 180.86 234.828 180.452C234.98 180.044 235.196 179.696 235.476 179.408C235.756 179.112 236.092 178.888 236.484 178.736C236.876 178.576 237.312 178.496 237.792 178.496C238.32 178.496 238.788 178.596 239.196 178.796C239.612 178.988 239.944 179.26 240.192 179.612C240.448 179.956 240.592 180.36 240.624 180.824H239.16C239.112 180.584 239.02 180.384 238.884 180.224C238.756 180.064 238.592 179.944 238.392 179.864C238.2 179.776 237.988 179.732 237.756 179.732C237.492 179.732 237.26 179.784 237.06 179.888C236.86 179.984 236.688 180.124 236.544 180.308C236.408 180.492 236.304 180.712 236.232 180.968C236.16 181.216 236.124 181.496 236.124 181.808C236.124 182.264 236.192 182.644 236.328 182.948C236.464 183.252 236.652 183.484 236.892 183.644C237.14 183.796 237.424 183.872 237.744 183.872C238.016 183.872 238.252 183.824 238.452 183.728C238.66 183.632 238.828 183.5 238.956 183.332C239.084 183.156 239.164 182.956 239.196 182.732H240.648C240.616 183.212 240.468 183.632 240.204 183.992C239.948 184.344 239.608 184.62 239.184 184.82C238.768 185.012 238.288 185.108 237.744 185.108ZM246.636 185.108C246.156 185.108 245.744 185.012 245.4 184.82C245.056 184.628 244.792 184.344 244.608 183.968C244.432 183.584 244.344 183.12 244.344 182.576V178.616H245.844V182.18C245.844 182.54 245.892 182.848 245.988 183.104C246.084 183.352 246.232 183.544 246.432 183.68C246.632 183.816 246.892 183.884 247.212 183.884C247.532 183.884 247.808 183.804 248.04 183.644C248.28 183.484 248.464 183.272 248.592 183.008C248.72 182.736 248.784 182.432 248.784 182.096V178.616H250.284V185H248.844L248.784 183.764H248.712C248.552 184.196 248.284 184.528 247.908 184.76C247.54 184.992 247.116 185.108 246.636 185.108ZM251.894 187.004V178.616H253.322L253.382 179.78H253.466C253.602 179.396 253.854 179.088 254.222 178.856C254.59 178.616 255.026 178.496 255.53 178.496C255.922 178.496 256.278 178.572 256.598 178.724C256.918 178.876 257.194 179.096 257.426 179.384C257.658 179.664 257.834 180.008 257.954 180.416C258.082 180.824 258.146 181.288 258.146 181.808C258.146 182.496 258.034 183.088 257.81 183.584C257.594 184.08 257.29 184.46 256.898 184.724C256.506 184.988 256.05 185.12 255.53 185.12C255.194 185.12 254.886 185.068 254.606 184.964C254.326 184.852 254.086 184.7 253.886 184.508C253.694 184.316 253.554 184.096 253.466 183.848H253.394V187.004H251.894ZM254.966 183.896C255.318 183.896 255.618 183.812 255.866 183.644C256.114 183.476 256.298 183.236 256.418 182.924C256.546 182.604 256.61 182.232 256.61 181.808C256.61 181.376 256.55 181.004 256.43 180.692C256.31 180.38 256.13 180.14 255.89 179.972C255.65 179.804 255.354 179.72 255.002 179.72C254.65 179.72 254.354 179.8 254.114 179.96C253.874 180.112 253.694 180.324 253.574 180.596C253.454 180.86 253.394 181.152 253.394 181.472V182.156C253.394 182.484 253.458 182.78 253.586 183.044C253.714 183.3 253.894 183.508 254.126 183.668C254.358 183.82 254.638 183.896 254.966 183.896ZM261.897 185.108C261.505 185.108 261.149 185.036 260.829 184.892C260.509 184.74 260.233 184.524 260.001 184.244C259.769 183.956 259.589 183.608 259.461 183.2C259.341 182.784 259.281 182.32 259.281 181.808C259.281 181.112 259.389 180.516 259.605 180.02C259.829 179.524 260.137 179.148 260.529 178.892C260.921 178.628 261.377 178.496 261.897 178.496C262.233 178.496 262.537 178.548 262.809 178.652C263.089 178.756 263.325 178.904 263.517 179.096C263.717 179.288 263.865 179.512 263.961 179.768H264.021V176.252H265.521V185H264.105L264.045 183.836H263.961C263.825 184.22 263.573 184.528 263.205 184.76C262.837 184.992 262.401 185.108 261.897 185.108ZM262.425 183.884C262.777 183.884 263.069 183.808 263.301 183.656C263.541 183.496 263.721 183.284 263.841 183.02C263.961 182.756 264.021 182.464 264.021 182.144V181.46C264.021 181.132 263.957 180.836 263.829 180.572C263.709 180.308 263.529 180.1 263.289 179.948C263.057 179.796 262.781 179.72 262.461 179.72C262.101 179.72 261.797 179.804 261.549 179.972C261.309 180.132 261.125 180.368 260.997 180.68C260.869 180.992 260.805 181.368 260.805 181.808C260.805 182.232 260.865 182.6 260.985 182.912C261.113 183.224 261.297 183.464 261.537 183.632C261.777 183.8 262.073 183.884 262.425 183.884ZM269.42 185.108C269.028 185.108 268.672 185.036 268.352 184.892C268.032 184.74 267.756 184.524 267.524 184.244C267.292 183.956 267.112 183.608 266.984 183.2C266.864 182.784 266.804 182.32 266.804 181.808C266.804 181.112 266.912 180.516 267.128 180.02C267.352 179.524 267.66 179.148 268.052 178.892C268.444 178.628 268.9 178.496 269.42 178.496C269.756 178.496 270.06 178.548 270.332 178.652C270.612 178.756 270.848 178.904 271.04 179.096C271.24 179.288 271.388 179.512 271.484 179.768H271.568L271.628 178.616H273.044V185H271.628L271.568 183.836H271.484C271.348 184.22 271.096 184.528 270.728 184.76C270.36 184.992 269.924 185.108 269.42 185.108ZM269.948 183.884C270.3 183.884 270.592 183.808 270.824 183.656C271.064 183.496 271.244 183.284 271.364 183.02C271.484 182.756 271.544 182.464 271.544 182.144V181.46C271.544 181.132 271.48 180.836 271.352 180.572C271.232 180.308 271.052 180.1 270.812 179.948C270.58 179.796 270.304 179.72 269.984 179.72C269.624 179.72 269.32 179.804 269.072 179.972C268.832 180.132 268.648 180.368 268.52 180.68C268.392 180.992 268.328 181.368 268.328 181.808C268.328 182.232 268.388 182.6 268.508 182.912C268.636 183.224 268.82 183.464 269.06 183.632C269.3 183.8 269.596 183.884 269.948 183.884ZM275.084 185.096C274.844 185.096 274.648 185.028 274.496 184.892C274.352 184.748 274.28 184.564 274.28 184.34C274.28 184.108 274.352 183.924 274.496 183.788C274.648 183.652 274.844 183.584 275.084 183.584C275.316 183.584 275.504 183.652 275.648 183.788C275.8 183.924 275.876 184.108 275.876 184.34C275.876 184.564 275.8 184.748 275.648 184.892C275.504 185.028 275.316 185.096 275.084 185.096ZM277.545 185.096C277.305 185.096 277.109 185.028 276.957 184.892C276.813 184.748 276.741 184.564 276.741 184.34C276.741 184.108 276.813 183.924 276.957 183.788C277.109 183.652 277.305 183.584 277.545 183.584C277.777 183.584 277.965 183.652 278.109 183.788C278.261 183.924 278.337 184.108 278.337 184.34C278.337 184.564 278.261 184.748 278.109 184.892C277.965 185.028 277.777 185.096 277.545 185.096ZM280.006 185.096C279.766 185.096 279.57 185.028 279.418 184.892C279.274 184.748 279.202 184.564 279.202 184.34C279.202 184.108 279.274 183.924 279.418 183.788C279.57 183.652 279.766 183.584 280.006 183.584C280.238 183.584 280.426 183.652 280.57 183.788C280.722 183.924 280.798 184.108 280.798 184.34C280.798 184.564 280.722 184.748 280.57 184.892C280.426 185.028 280.238 185.096 280.006 185.096Z" fill="#2B2B2B"/>
<rect x="135.5" y="129.5" width="174" height="30" rx="15" fill="white"/>
<rect x="135.5" y="129.5" width="174" height="30" rx="15" stroke="#D5D5D5"/>
<path d="M150.888 149V140.252H154.524C155.372 140.252 156.092 140.436 156.684 140.804C157.284 141.164 157.74 141.672 158.052 142.328C158.364 142.984 158.52 143.752 158.52 144.632C158.52 145.28 158.432 145.876 158.256 146.42C158.08 146.956 157.82 147.416 157.476 147.8C157.132 148.184 156.712 148.48 156.216 148.688C155.728 148.896 155.164 149 154.524 149H150.888ZM152.472 147.632H154.272C154.656 147.632 155.008 147.576 155.328 147.464C155.648 147.352 155.924 147.176 156.156 146.936C156.388 146.688 156.568 146.372 156.696 145.988C156.824 145.604 156.888 145.14 156.888 144.596C156.888 143.884 156.776 143.312 156.552 142.88C156.336 142.44 156.032 142.12 155.64 141.92C155.248 141.712 154.792 141.608 154.272 141.608H152.472V147.632ZM162.835 149.108C162.355 149.108 161.923 149.036 161.539 148.892C161.155 148.74 160.819 148.52 160.531 148.232C160.251 147.944 160.035 147.596 159.883 147.188C159.739 146.78 159.667 146.32 159.667 145.808C159.667 145.152 159.791 144.576 160.039 144.08C160.295 143.584 160.659 143.196 161.131 142.916C161.603 142.636 162.171 142.496 162.835 142.496C163.307 142.496 163.735 142.572 164.119 142.724C164.503 142.876 164.831 143.096 165.103 143.384C165.383 143.672 165.599 144.02 165.751 144.428C165.903 144.828 165.979 145.288 165.979 145.808C165.979 146.456 165.851 147.028 165.595 147.524C165.347 148.02 164.987 148.408 164.515 148.688C164.051 148.968 163.491 149.108 162.835 149.108ZM162.823 147.872C163.151 147.872 163.439 147.796 163.687 147.644C163.935 147.484 164.127 147.252 164.263 146.948C164.399 146.636 164.467 146.256 164.467 145.808C164.467 145.472 164.427 145.176 164.347 144.92C164.275 144.656 164.167 144.436 164.023 144.26C163.879 144.084 163.707 143.952 163.507 143.864C163.307 143.776 163.083 143.732 162.835 143.732C162.507 143.732 162.215 143.812 161.959 143.972C161.711 144.124 161.519 144.356 161.383 144.668C161.247 144.972 161.179 145.352 161.179 145.808C161.179 146.144 161.215 146.444 161.287 146.708C161.367 146.964 161.479 147.18 161.623 147.356C161.767 147.524 161.939 147.652 162.139 147.74C162.347 147.828 162.575 147.872 162.823 147.872ZM168.075 149L166.515 142.616H168.051L168.819 146.012L169.143 147.668H169.215L169.503 146.012L170.199 142.616H171.891L172.599 146.012L172.887 147.68H172.959L173.271 146.012L174.051 142.616H175.515L173.955 149H171.987L171.315 146.012L171.015 144.332H170.955L170.667 146.012L170.043 149H168.075ZM176.456 149V142.616H177.812L177.884 143.684H177.932C178.076 143.276 178.308 142.984 178.628 142.808C178.956 142.624 179.328 142.532 179.744 142.532C179.816 142.532 179.88 142.532 179.936 142.532C180 142.532 180.06 142.532 180.116 142.532V143.948C180.068 143.948 180.008 143.948 179.936 143.948C179.872 143.94 179.8 143.936 179.72 143.936C179.336 143.936 179.016 144 178.76 144.128C178.504 144.248 178.308 144.424 178.172 144.656C178.044 144.888 177.972 145.172 177.956 145.508V149H176.456ZM181.165 151.004V149.768H181.885C182.069 149.768 182.225 149.744 182.353 149.696C182.481 149.648 182.589 149.572 182.677 149.468C182.765 149.364 182.841 149.232 182.905 149.072L183.241 148.196V148.832L180.637 142.616H182.293L183.433 145.928L183.829 147.128H183.889L184.261 145.928L185.329 142.616H186.937L184.369 149.42C184.217 149.828 184.033 150.148 183.817 150.38C183.609 150.612 183.365 150.772 183.085 150.86C182.813 150.956 182.501 151.004 182.149 151.004H181.165ZM194.551 149.108C193.895 149.108 193.299 149.008 192.763 148.808C192.235 148.6 191.779 148.304 191.395 147.92C191.011 147.536 190.715 147.068 190.507 146.516C190.307 145.956 190.207 145.324 190.207 144.62C190.207 143.916 190.307 143.288 190.507 142.736C190.715 142.184 191.011 141.716 191.395 141.332C191.779 140.948 192.235 140.656 192.763 140.456C193.299 140.248 193.895 140.144 194.551 140.144C195.287 140.144 195.943 140.272 196.519 140.528C197.095 140.784 197.563 141.144 197.923 141.608C198.283 142.064 198.503 142.604 198.583 143.228H196.963C196.891 142.884 196.747 142.584 196.531 142.328C196.315 142.072 196.039 141.872 195.703 141.728C195.367 141.584 194.983 141.512 194.551 141.512C193.999 141.512 193.519 141.632 193.111 141.872C192.711 142.104 192.399 142.452 192.175 142.916C191.951 143.38 191.839 143.948 191.839 144.62C191.839 145.124 191.903 145.572 192.031 145.964C192.159 146.356 192.339 146.684 192.571 146.948C192.811 147.212 193.095 147.412 193.423 147.548C193.759 147.676 194.135 147.74 194.551 147.74C194.975 147.74 195.355 147.668 195.691 147.524C196.027 147.38 196.307 147.18 196.531 146.924C196.755 146.66 196.899 146.356 196.963 146.012H198.583C198.511 146.628 198.291 147.172 197.923 147.644C197.563 148.108 197.095 148.468 196.519 148.724C195.943 148.98 195.287 149.108 194.551 149.108ZM202.573 149.108C202.093 149.108 201.661 149.036 201.277 148.892C200.893 148.74 200.557 148.52 200.269 148.232C199.989 147.944 199.773 147.596 199.621 147.188C199.477 146.78 199.405 146.32 199.405 145.808C199.405 145.152 199.529 144.576 199.777 144.08C200.033 143.584 200.397 143.196 200.869 142.916C201.341 142.636 201.909 142.496 202.573 142.496C203.045 142.496 203.473 142.572 203.857 142.724C204.241 142.876 204.569 143.096 204.841 143.384C205.121 143.672 205.337 144.02 205.489 144.428C205.641 144.828 205.717 145.288 205.717 145.808C205.717 146.456 205.589 147.028 205.333 147.524C205.085 148.02 204.725 148.408 204.253 148.688C203.789 148.968 203.229 149.108 202.573 149.108ZM202.561 147.872C202.889 147.872 203.177 147.796 203.425 147.644C203.673 147.484 203.865 147.252 204.001 146.948C204.137 146.636 204.205 146.256 204.205 145.808C204.205 145.472 204.165 145.176 204.085 144.92C204.013 144.656 203.905 144.436 203.761 144.26C203.617 144.084 203.445 143.952 203.245 143.864C203.045 143.776 202.821 143.732 202.573 143.732C202.245 143.732 201.953 143.812 201.697 143.972C201.449 144.124 201.257 144.356 201.121 144.668C200.985 144.972 200.917 145.352 200.917 145.808C200.917 146.144 200.953 146.444 201.025 146.708C201.105 146.964 201.217 147.18 201.361 147.356C201.505 147.524 201.677 147.652 201.877 147.74C202.085 147.828 202.313 147.872 202.561 147.872ZM206.96 149V142.616H208.412L208.46 143.828H208.532C208.708 143.38 208.98 143.048 209.348 142.832C209.716 142.608 210.12 142.496 210.56 142.496C211.024 142.496 211.44 142.608 211.808 142.832C212.176 143.056 212.444 143.432 212.612 143.96H212.708C212.876 143.472 213.156 143.108 213.548 142.868C213.94 142.62 214.384 142.496 214.88 142.496C215.304 142.496 215.68 142.584 216.008 142.76C216.344 142.936 216.608 143.22 216.8 143.612C216.992 144.004 217.088 144.524 217.088 145.172V149H215.588V145.496C215.588 145.096 215.544 144.768 215.456 144.512C215.368 144.248 215.228 144.052 215.036 143.924C214.844 143.796 214.6 143.732 214.304 143.732C213.984 143.732 213.708 143.812 213.476 143.972C213.252 144.132 213.08 144.344 212.96 144.608C212.84 144.872 212.78 145.164 212.78 145.484V149H211.268V145.496C211.268 145.096 211.224 144.768 211.136 144.512C211.048 144.248 210.908 144.052 210.716 143.924C210.532 143.796 210.292 143.732 209.996 143.732C209.676 143.732 209.4 143.812 209.168 143.972C208.944 144.132 208.768 144.344 208.64 144.608C208.52 144.872 208.46 145.164 208.46 145.484V149H206.96ZM218.585 151.004V142.616H220.013L220.073 143.78H220.157C220.293 143.396 220.545 143.088 220.913 142.856C221.281 142.616 221.717 142.496 222.221 142.496C222.613 142.496 222.969 142.572 223.289 142.724C223.609 142.876 223.885 143.096 224.117 143.384C224.349 143.664 224.525 144.008 224.645 144.416C224.773 144.824 224.837 145.288 224.837 145.808C224.837 146.496 224.725 147.088 224.501 147.584C224.285 148.08 223.981 148.46 223.589 148.724C223.197 148.988 222.741 149.12 222.221 149.12C221.885 149.12 221.577 149.068 221.297 148.964C221.017 148.852 220.777 148.7 220.577 148.508C220.385 148.316 220.245 148.096 220.157 147.848H220.085V151.004H218.585ZM221.657 147.896C222.009 147.896 222.309 147.812 222.557 147.644C222.805 147.476 222.989 147.236 223.109 146.924C223.237 146.604 223.301 146.232 223.301 145.808C223.301 145.376 223.241 145.004 223.121 144.692C223.001 144.38 222.821 144.14 222.581 143.972C222.341 143.804 222.045 143.72 221.693 143.72C221.341 143.72 221.045 143.8 220.805 143.96C220.565 144.112 220.385 144.324 220.265 144.596C220.145 144.86 220.085 145.152 220.085 145.472V146.156C220.085 146.484 220.149 146.78 220.277 147.044C220.405 147.3 220.585 147.508 220.817 147.668C221.049 147.82 221.329 147.896 221.657 147.896ZM226.109 149V140.252H227.609V149H226.109ZM231.518 149.108C231.126 149.108 230.77 149.036 230.45 148.892C230.13 148.74 229.854 148.524 229.622 148.244C229.39 147.956 229.21 147.608 229.082 147.2C228.962 146.784 228.902 146.32 228.902 145.808C228.902 145.112 229.01 144.516 229.226 144.02C229.45 143.524 229.758 143.148 230.15 142.892C230.542 142.628 230.998 142.496 231.518 142.496C231.854 142.496 232.158 142.548 232.43 142.652C232.71 142.756 232.946 142.904 233.138 143.096C233.338 143.288 233.486 143.512 233.582 143.768H233.666L233.726 142.616H235.142V149H233.726L233.666 147.836H233.582C233.446 148.22 233.194 148.528 232.826 148.76C232.458 148.992 232.022 149.108 231.518 149.108ZM232.046 147.884C232.398 147.884 232.69 147.808 232.922 147.656C233.162 147.496 233.342 147.284 233.462 147.02C233.582 146.756 233.642 146.464 233.642 146.144V145.46C233.642 145.132 233.578 144.836 233.45 144.572C233.33 144.308 233.15 144.1 232.91 143.948C232.678 143.796 232.402 143.72 232.082 143.72C231.722 143.72 231.418 143.804 231.17 143.972C230.93 144.132 230.746 144.368 230.618 144.68C230.49 144.992 230.426 145.368 230.426 145.808C230.426 146.232 230.486 146.6 230.606 146.912C230.734 147.224 230.918 147.464 231.158 147.632C231.398 147.8 231.694 147.884 232.046 147.884ZM236.749 149V142.616H238.249V149H236.749ZM237.505 141.752C237.265 141.752 237.065 141.688 236.905 141.56C236.753 141.424 236.677 141.244 236.677 141.02C236.677 140.788 236.753 140.608 236.905 140.48C237.065 140.352 237.265 140.288 237.505 140.288C237.745 140.288 237.941 140.352 238.093 140.48C238.253 140.608 238.333 140.788 238.333 141.02C238.333 141.244 238.253 141.424 238.093 141.56C237.941 141.688 237.745 141.752 237.505 141.752ZM239.867 149V142.616H241.307L241.367 143.828H241.439C241.623 143.38 241.903 143.048 242.279 142.832C242.655 142.608 243.075 142.496 243.539 142.496C243.859 142.496 244.155 142.548 244.427 142.652C244.707 142.748 244.947 142.904 245.147 143.12C245.355 143.328 245.515 143.604 245.627 143.948C245.747 144.284 245.807 144.692 245.807 145.172V149H244.307V145.496C244.307 145.096 244.259 144.768 244.163 144.512C244.067 144.248 243.919 144.052 243.719 143.924C243.527 143.796 243.275 143.732 242.963 143.732C242.627 143.732 242.339 143.812 242.099 143.972C241.867 144.132 241.687 144.344 241.559 144.608C241.431 144.872 241.367 145.164 241.367 145.484V149H239.867ZM249.362 149C248.85 149 248.466 148.88 248.21 148.64C247.962 148.392 247.838 148 247.838 147.464V143.828H246.662V142.616H247.838V140.816L249.338 140.66V142.616H250.682V143.828H249.338V147.188C249.338 147.404 249.386 147.556 249.482 147.644C249.586 147.724 249.734 147.764 249.926 147.764H250.694V149H249.362ZM254.599 149V140.252H258.907C259.259 140.252 259.579 140.284 259.867 140.348C260.163 140.412 260.427 140.508 260.659 140.636C260.891 140.764 261.087 140.924 261.247 141.116C261.407 141.308 261.531 141.532 261.619 141.788C261.707 142.036 261.751 142.316 261.751 142.628C261.751 143.172 261.607 143.632 261.319 144.008C261.039 144.376 260.647 144.628 260.143 144.764V144.836C260.487 144.892 260.763 144.996 260.971 145.148C261.179 145.292 261.331 145.48 261.427 145.712C261.523 145.944 261.571 146.224 261.571 146.552V148.028C261.571 148.18 261.575 148.34 261.583 148.508C261.599 148.668 261.643 148.832 261.715 149H260.107C260.059 148.888 260.023 148.748 259.999 148.58C259.983 148.412 259.975 148.224 259.975 148.016V146.828C259.975 146.556 259.935 146.332 259.855 146.156C259.775 145.972 259.631 145.832 259.423 145.736C259.215 145.632 258.915 145.58 258.523 145.58H256.027V144.32H258.547C259.115 144.32 259.519 144.188 259.759 143.924C259.999 143.652 260.119 143.316 260.119 142.916C260.119 142.668 260.079 142.464 259.999 142.304C259.927 142.136 259.819 142 259.675 141.896C259.539 141.784 259.375 141.704 259.183 141.656C258.991 141.6 258.779 141.572 258.547 141.572H256.183V149H254.599ZM265.804 149.108C265.156 149.108 264.604 148.976 264.148 148.712C263.7 148.44 263.356 148.06 263.116 147.572C262.876 147.076 262.756 146.5 262.756 145.844C262.756 145.164 262.876 144.576 263.116 144.08C263.356 143.576 263.7 143.188 264.148 142.916C264.596 142.644 265.128 142.508 265.744 142.508C266.448 142.508 267.024 142.664 267.472 142.976C267.928 143.28 268.256 143.704 268.456 144.248C268.656 144.792 268.724 145.416 268.66 146.12H264.22C264.22 146.528 264.284 146.872 264.412 147.152C264.548 147.424 264.732 147.632 264.964 147.776C265.204 147.912 265.484 147.98 265.804 147.98C266.18 147.98 266.484 147.9 266.716 147.74C266.956 147.58 267.116 147.368 267.196 147.104H268.612C268.548 147.52 268.388 147.88 268.132 148.184C267.876 148.48 267.548 148.708 267.148 148.868C266.748 149.028 266.3 149.108 265.804 149.108ZM264.22 145.316L264.088 145.16H267.34L267.196 145.328C267.212 144.936 267.16 144.616 267.04 144.368C266.92 144.12 266.748 143.936 266.524 143.816C266.3 143.696 266.04 143.636 265.744 143.636C265.44 143.636 265.176 143.7 264.952 143.828C264.728 143.956 264.552 144.148 264.424 144.404C264.296 144.652 264.228 144.956 264.22 145.316ZM271.381 149L269.161 142.616H270.769L271.837 146.3L272.281 147.848H272.341L272.785 146.3L273.853 142.616H275.473L273.253 149H271.381ZM276.464 149V142.616H277.964V149H276.464ZM277.22 141.752C276.98 141.752 276.78 141.688 276.62 141.56C276.468 141.424 276.392 141.244 276.392 141.02C276.392 140.788 276.468 140.608 276.62 140.48C276.78 140.352 276.98 140.288 277.22 140.288C277.46 140.288 277.656 140.352 277.808 140.48C277.968 140.608 278.048 140.788 278.048 141.02C278.048 141.244 277.968 141.424 277.808 141.56C277.656 141.688 277.46 141.752 277.22 141.752ZM282.233 149.108C281.585 149.108 281.033 148.976 280.577 148.712C280.129 148.44 279.785 148.06 279.545 147.572C279.305 147.076 279.185 146.5 279.185 145.844C279.185 145.164 279.305 144.576 279.545 144.08C279.785 143.576 280.129 143.188 280.577 142.916C281.025 142.644 281.557 142.508 282.173 142.508C282.877 142.508 283.453 142.664 283.901 142.976C284.357 143.28 284.685 143.704 284.885 144.248C285.085 144.792 285.153 145.416 285.089 146.12H280.649C280.649 146.528 280.713 146.872 280.841 147.152C280.977 147.424 281.161 147.632 281.393 147.776C281.633 147.912 281.913 147.98 282.233 147.98C282.609 147.98 282.913 147.9 283.145 147.74C283.385 147.58 283.545 147.368 283.625 147.104H285.041C284.977 147.52 284.817 147.88 284.561 148.184C284.305 148.48 283.977 148.708 283.577 148.868C283.177 149.028 282.729 149.108 282.233 149.108ZM280.649 145.316L280.517 145.16H283.769L283.625 145.328C283.641 144.936 283.589 144.616 283.469 144.368C283.349 144.12 283.177 143.936 282.953 143.816C282.729 143.696 282.469 143.636 282.173 143.636C281.869 143.636 281.605 143.7 281.381 143.828C281.157 143.956 280.981 144.148 280.853 144.404C280.725 144.652 280.657 144.956 280.649 145.316ZM287.149 149L285.589 142.616H287.125L287.893 146.012L288.217 147.668H288.289L288.577 146.012L289.273 142.616H290.965L291.673 146.012L291.961 147.68H292.033L292.345 146.012L293.125 142.616H294.589L293.029 149H291.061L290.389 146.012L290.089 144.332H290.029L289.741 146.012L289.117 149H287.149Z" fill="#2B2B2B"/>
<defs>
<clipPath id="clip0_106_349">
<rect width="24" height="24" fill="white" transform="matrix(0 1 -1 0 82 208)"/>
</clipPath>
</defs>
</svg>
