<svg width="206" height="46" viewBox="0 0 206 46" fill="none" xmlns="http://www.w3.org/2000/svg">
<path d="M98.9321 32.1709V9.07316H108.296C110.002 9.07316 111.459 9.37489 112.666 9.97834C113.894 10.5818 114.83 11.4141 115.475 12.4754C116.141 13.5366 116.474 14.7644 116.474 16.1585C116.474 17.6776 116.089 19.0094 115.319 20.1538C114.549 21.2775 113.457 22.0995 112.042 22.6197L117.067 32.1709H111.729L107.141 23.2751H103.739V32.1709H98.9321ZM108.234 13.2245H103.739V19.3423H108.234C109.295 19.3423 110.127 19.051 110.731 18.4683C111.334 17.8857 111.636 17.1678 111.636 16.3146C111.636 15.4406 111.334 14.7123 110.731 14.1297C110.127 13.5262 109.295 13.2245 108.234 13.2245ZM125.966 32.483C124.509 32.483 123.251 32.2437 122.189 31.7651C121.128 31.2657 120.254 30.6102 119.567 29.7987C118.881 28.9663 118.36 28.0404 118.007 27.0207C117.674 26.0011 117.507 24.9503 117.507 23.8682C117.507 22.8278 117.663 21.8081 117.976 20.8093C118.308 19.7897 118.808 18.8637 119.474 18.0313C120.16 17.199 121.024 16.5435 122.064 16.0649C123.126 15.5655 124.374 15.3158 125.81 15.3158C127.329 15.3158 128.671 15.6487 129.837 16.3146C131.023 16.9805 131.949 17.9689 132.614 19.2799C133.28 20.57 133.613 22.1411 133.613 23.9931V25.1479H122.283C122.345 26.1468 122.689 27.0103 123.313 27.7386C123.958 28.4669 124.842 28.8311 125.966 28.8311C126.611 28.8311 127.131 28.7375 127.527 28.5502C127.943 28.3421 128.265 28.1132 128.494 27.8635C128.723 27.593 128.879 27.3537 128.963 27.1456C129.046 26.9375 129.087 26.8334 129.087 26.8334H133.457C133.457 26.8334 133.405 27.0311 133.301 27.4265C133.218 27.8011 133.031 28.2693 132.739 28.8311C132.448 29.3929 132.021 29.9548 131.46 30.5166C130.919 31.0784 130.201 31.5466 129.306 31.9212C128.411 32.2958 127.298 32.483 125.966 32.483ZM122.283 22.2763H129.056C128.994 21.1318 128.65 20.2787 128.026 19.7168C127.402 19.155 126.632 18.8741 125.716 18.8741C124.801 18.8741 124.02 19.1758 123.375 19.7793C122.73 20.3619 122.366 21.1943 122.283 22.2763ZM142.362 15.3158C143.423 15.3158 144.297 15.4927 144.984 15.8464C145.67 16.1794 146.191 16.5435 146.544 16.9389C146.919 17.3342 147.148 17.6048 147.231 17.7504H147.481V15.6279H152.225V32.1709H147.481V30.0484H147.231C147.148 30.1941 146.919 30.4646 146.544 30.8599C146.191 31.2553 145.67 31.6299 144.984 31.9836C144.297 32.3166 143.423 32.483 142.362 32.483C141.134 32.483 140.062 32.2437 139.147 31.7651C138.252 31.2657 137.503 30.6102 136.899 29.7987C136.296 28.9663 135.838 28.0404 135.526 27.0207C135.235 26.0011 135.089 24.9607 135.089 23.8994C135.089 22.8382 135.235 21.7977 135.526 20.7781C135.838 19.7585 136.296 18.8429 136.899 18.0313C137.503 17.199 138.252 16.5435 139.147 16.0649C140.062 15.5655 141.134 15.3158 142.362 15.3158ZM143.735 19.155C142.882 19.155 142.164 19.3943 141.581 19.8729C141.02 20.3307 140.593 20.9238 140.302 21.6521C140.031 22.3804 139.896 23.1295 139.896 23.8994C139.896 24.6693 140.031 25.4185 140.302 26.1468C140.593 26.8751 141.02 27.4785 141.581 27.9571C142.164 28.4149 142.882 28.6438 143.735 28.6438C144.588 28.6438 145.296 28.4149 145.858 27.9571C146.44 27.4785 146.867 26.8751 147.137 26.1468C147.429 25.4185 147.574 24.6693 147.574 23.8994C147.574 23.1295 147.429 22.3804 147.137 21.6521C146.867 20.9238 146.44 20.3307 145.858 19.8729C145.296 19.3943 144.588 19.155 143.735 19.155ZM161.252 32.483C159.879 32.483 158.745 32.2958 157.85 31.9212C156.955 31.5466 156.237 31.0888 155.696 30.5478C155.176 29.986 154.781 29.4345 154.51 28.8935C154.26 28.3317 154.094 27.8635 154.011 27.4889C153.948 27.1144 153.917 26.9271 153.917 26.9271H158.318C158.318 26.9271 158.349 27.0311 158.412 27.2392C158.474 27.4473 158.609 27.6866 158.817 27.9571C159.046 28.2276 159.369 28.4669 159.785 28.675C160.201 28.8831 160.763 28.9872 161.471 28.9872C162.345 28.9872 162.938 28.8103 163.25 28.4565C163.583 28.1028 163.749 27.749 163.749 27.3953C163.749 26.6462 163.135 26.1468 161.908 25.8971L159.66 25.4601C158.703 25.2728 157.798 25.0023 156.945 24.6485C156.112 24.274 155.436 23.7642 154.916 23.1191C154.416 22.4532 154.167 21.6 154.167 20.5596C154.167 19.5608 154.427 18.666 154.947 17.8753C155.467 17.0845 156.206 16.4603 157.163 16.0025C158.141 15.5447 159.306 15.3158 160.659 15.3158C161.928 15.3158 162.979 15.4927 163.812 15.8464C164.665 16.1794 165.341 16.6059 165.84 17.1262C166.34 17.6256 166.714 18.1354 166.964 18.6556C167.214 19.155 167.37 19.5816 167.432 19.9353C167.515 20.2683 167.557 20.4348 167.557 20.4348H163.312C163.312 20.4348 163.25 20.2995 163.125 20.029C163 19.7377 162.74 19.4567 162.345 19.1862C161.97 18.8949 161.387 18.7492 160.597 18.7492C159.785 18.7492 159.223 18.9157 158.911 19.2487C158.599 19.5608 158.443 19.8937 158.443 20.2475C158.443 20.6636 158.62 20.9758 158.973 21.1839C159.348 21.392 159.827 21.5584 160.409 21.6833L162.563 22.1203C164.144 22.4324 165.445 22.9838 166.465 23.7746C167.484 24.5445 167.994 25.6682 167.994 27.1456C167.994 28.1444 167.734 29.0496 167.214 29.8611C166.694 30.6727 165.934 31.3177 164.935 31.7963C163.936 32.2541 162.709 32.483 161.252 32.483ZM177.833 32.483C175.981 32.483 174.41 32.0877 173.119 31.2969C171.829 30.4854 170.841 29.4345 170.154 28.1444C169.488 26.8334 169.155 25.4185 169.155 23.8994C169.155 22.3804 169.488 20.9758 170.154 19.6856C170.841 18.3747 171.829 17.3238 173.119 16.5331C174.41 15.7216 175.981 15.3158 177.833 15.3158C179.685 15.3158 181.256 15.7216 182.546 16.5331C183.836 17.3238 184.814 18.3747 185.48 19.6856C186.166 20.9758 186.51 22.3804 186.51 23.8994C186.51 25.4185 186.166 26.8334 185.48 28.1444C184.814 29.4345 183.836 30.4854 182.546 31.2969C181.256 32.0877 179.685 32.483 177.833 32.483ZM177.833 28.6126C178.665 28.6126 179.362 28.3941 179.924 27.9571C180.507 27.5201 180.954 26.9479 181.266 26.2404C181.578 25.5121 181.734 24.7318 181.734 23.8994C181.734 23.0463 181.578 22.2659 181.266 21.5584C180.954 20.8509 180.507 20.2787 179.924 19.8417C179.362 19.4047 178.665 19.1862 177.833 19.1862C177 19.1862 176.293 19.4047 175.71 19.8417C175.127 20.2787 174.68 20.8509 174.368 21.5584C174.077 22.2659 173.931 23.0463 173.931 23.8994C173.931 24.7318 174.077 25.5121 174.368 26.2404C174.68 26.9479 175.127 27.5201 175.71 27.9571C176.293 28.3941 177 28.6126 177.833 28.6126ZM188.175 32.1709V15.6279H192.919V18.0001H193.075C193.263 17.6672 193.533 17.2926 193.887 16.8765C194.261 16.4603 194.75 16.0961 195.354 15.784C195.978 15.4719 196.769 15.3158 197.726 15.3158C199.016 15.3158 200.067 15.6175 200.879 16.221C201.69 16.8036 202.283 17.5631 202.658 18.4995C203.032 19.4151 203.22 20.3827 203.22 21.4024V32.1709H198.475V22.2139C198.475 21.4232 198.257 20.7261 197.82 20.1226C197.404 19.5192 196.727 19.2174 195.791 19.2174C195.083 19.2174 194.522 19.3839 194.105 19.7168C193.689 20.0498 193.387 20.4764 193.2 20.9966C193.013 21.5168 192.919 22.0682 192.919 22.6509V32.1709H188.175Z" fill="#C8A24B"/>
<path d="M113.002 32.384L99.5413 9.36426H98.9561V32.579L113.002 32.384Z" fill="#2B2B2B"/>
<path d="M51.6733 32.1709V9.07316H56.4801V27.9883H67.7793V32.1709H51.6733ZM77.2137 32.483C75.7571 32.483 74.4981 32.2437 73.4369 31.7651C72.3756 31.2657 71.5017 30.6102 70.815 29.7987C70.1283 28.9663 69.6081 28.0404 69.2543 27.0207C68.9214 26.0011 68.7549 24.9503 68.7549 23.8682C68.7549 22.8278 68.911 21.8081 69.2231 20.8093C69.5561 19.7897 70.0555 18.8637 70.7213 18.0313C71.408 17.199 72.2716 16.5435 73.312 16.0649C74.3733 15.5655 75.6218 15.3158 77.0576 15.3158C78.5767 15.3158 79.9188 15.6487 81.0841 16.3146C82.2702 16.9805 83.1962 17.9689 83.8621 19.2799C84.528 20.57 84.8609 22.1411 84.8609 23.9931V25.1479H73.5305C73.593 26.1468 73.9363 27.0103 74.5606 27.7386C75.2056 28.4669 76.09 28.8311 77.2137 28.8311C77.8588 28.8311 78.379 28.7375 78.7743 28.5502C79.1905 28.3421 79.5131 28.1132 79.742 27.8635C79.9708 27.593 80.1269 27.3537 80.2101 27.1456C80.2934 26.9375 80.335 26.8334 80.335 26.8334H84.7048C84.7048 26.8334 84.6528 27.0311 84.5488 27.4265C84.4655 27.8011 84.2783 28.2693 83.9869 28.8311C83.6956 29.3929 83.269 29.9548 82.7072 30.5166C82.1662 31.0784 81.4483 31.5466 80.5535 31.9212C79.6587 32.2958 78.5454 32.483 77.2137 32.483ZM73.5305 22.2763H80.3038C80.2414 21.1318 79.898 20.2787 79.2738 19.7168C78.6495 19.155 77.8796 18.8741 76.964 18.8741C76.0484 18.8741 75.2681 19.1758 74.623 19.7793C73.9779 20.3619 73.6138 21.1943 73.5305 22.2763ZM85.2008 32.1709L90.2262 23.9306L85.2008 15.6279H90.1325L93.4099 21.0902L96.7497 15.6279H101.681L96.4688 23.9306L101.65 32.1709H96.7497L93.4099 26.7086L90.1637 32.1709H85.2008Z" fill="white"/>
<circle cx="22.6294" cy="22.2398" r="20.5689" fill="#272728" stroke="#886E2F"/>
<g filter="url(#filter0_f_124_846)">
<circle cx="22.8244" cy="22.8249" r="5.65738" fill="#D9AE40"/>
</g>
<path d="M22.8837 10.0297L23.0844 10.5872C23.1946 10.8929 23.3708 11.1704 23.6005 11.4001C23.8302 11.6299 24.1078 11.8061 24.4134 11.9162L24.9709 12.117C24.9819 12.121 24.9914 12.1283 24.9981 12.1379C25.0048 12.1476 25.0084 12.159 25.0084 12.1707C25.0084 12.1825 25.0048 12.1939 24.9981 12.2035C24.9914 12.2131 24.9819 12.2204 24.9709 12.2245L24.4134 12.4252C24.1078 12.5354 23.8302 12.7116 23.6005 12.9413C23.3708 13.171 23.1946 13.4486 23.0844 13.7542L22.8837 14.3117C22.8796 14.3227 22.8723 14.3322 22.8627 14.339C22.8531 14.3457 22.8416 14.3493 22.8299 14.3493C22.8182 14.3493 22.8067 14.3457 22.7971 14.339C22.7875 14.3322 22.7802 14.3227 22.7762 14.3117L22.5754 13.7542C22.4653 13.4486 22.289 13.171 22.0593 12.9413C21.8296 12.7116 21.552 12.5354 21.2464 12.4252L20.6889 12.2245C20.6779 12.2204 20.6684 12.2131 20.6617 12.2035C20.655 12.1939 20.6514 12.1825 20.6514 12.1707C20.6514 12.159 20.655 12.1476 20.6617 12.1379C20.6684 12.1283 20.6779 12.121 20.6889 12.117L21.2464 11.9162C21.552 11.8061 21.8296 11.6299 22.0593 11.4001C22.289 11.1704 22.4653 10.8929 22.5754 10.5872L22.7762 10.0297C22.7801 10.0186 22.7874 10.009 22.797 10.0022C22.8066 9.99536 22.8181 9.9917 22.8299 9.9917C22.8417 9.9917 22.8532 9.99536 22.8628 10.0022C22.8725 10.009 22.8797 10.0186 22.8837 10.0297ZM25.3932 8.68998L25.4949 8.97223C25.5507 9.12697 25.64 9.2675 25.7563 9.38383C25.8726 9.50015 26.0132 9.5894 26.1679 9.64523L26.4502 9.74698C26.4557 9.74901 26.4606 9.75272 26.464 9.75759C26.4674 9.76247 26.4692 9.76828 26.4692 9.77423C26.4692 9.78018 26.4674 9.78598 26.464 9.79086C26.4606 9.79573 26.4557 9.79944 26.4502 9.80148L26.1679 9.90323C26.0132 9.95905 25.8726 10.0483 25.7563 10.1646C25.64 10.2809 25.5507 10.4215 25.4949 10.5762L25.3932 10.8585C25.3911 10.8641 25.3874 10.8689 25.3825 10.8723C25.3777 10.8757 25.3719 10.8776 25.3659 10.8776C25.36 10.8776 25.3541 10.8757 25.3493 10.8723C25.3444 10.8689 25.3407 10.8641 25.3387 10.8585L25.2369 10.5762C25.1811 10.4215 25.0918 10.2809 24.9755 10.1646C24.8592 10.0483 24.7186 9.95905 24.5639 9.90323L24.2817 9.80148C24.2761 9.79944 24.2712 9.79573 24.2678 9.79086C24.2644 9.78598 24.2626 9.78018 24.2626 9.77423C24.2626 9.76828 24.2644 9.76247 24.2678 9.75759C24.2712 9.75272 24.2761 9.74901 24.2817 9.74698L24.5639 9.64523C24.7186 9.5894 24.8592 9.50015 24.9755 9.38383C25.0918 9.2675 25.1811 9.12697 25.2369 8.97223L25.3387 8.68998C25.3407 8.68439 25.3444 8.67956 25.3493 8.67614C25.3541 8.67273 25.36 8.6709 25.3659 8.6709C25.3719 8.6709 25.3777 8.67273 25.3825 8.67614C25.3874 8.67956 25.3911 8.68439 25.3932 8.68998ZM25.3932 13.4832L25.4949 13.7655C25.5507 13.9202 25.64 14.0608 25.7563 14.1771C25.8726 14.2934 26.0132 14.3826 26.1679 14.4385L26.4502 14.5402C26.4557 14.5423 26.4606 14.546 26.464 14.5508C26.4674 14.5557 26.4692 14.5615 26.4692 14.5675C26.4692 14.5734 26.4674 14.5792 26.464 14.5841C26.4606 14.589 26.4557 14.5927 26.4502 14.5947L26.1679 14.6965C26.0132 14.7523 25.8726 14.8416 25.7563 14.9579C25.64 15.0742 25.5507 15.2147 25.4949 15.3695L25.3932 15.6517C25.3911 15.6573 25.3874 15.6621 25.3825 15.6656C25.3777 15.669 25.3719 15.6708 25.3659 15.6708C25.36 15.6708 25.3541 15.669 25.3493 15.6656C25.3444 15.6621 25.3407 15.6573 25.3387 15.6517L25.2369 15.3695C25.1811 15.2147 25.0918 15.0742 24.9755 14.9579C24.8592 14.8416 24.7186 14.7523 24.5639 14.6965L24.2817 14.5947C24.2761 14.5927 24.2712 14.589 24.2678 14.5841C24.2644 14.5792 24.2626 14.5734 24.2626 14.5675C24.2626 14.5615 24.2644 14.5557 24.2678 14.5508C24.2712 14.546 24.2761 14.5423 24.2817 14.5402L24.5639 14.4385C24.7186 14.3826 24.8592 14.2934 24.9755 14.1771C25.0918 14.0608 25.1811 13.9202 25.2369 13.7655L25.3387 13.4832C25.3479 13.4577 25.3842 13.4577 25.3932 13.4832Z" fill="#D9AE40"/>
<path d="M26.3689 25.0981H21.46V27.3773C21.46 30.0569 23.6322 32.2293 26.312 32.2293H26.369H26.4261C29.1058 32.2293 31.2781 30.057 31.2781 27.3773V25.0981H26.3689Z" fill="url(#paint0_linear_124_846)"/>
<path d="M21.4601 27.3775V25.0983V17.3379C21.4601 14.6583 19.2878 12.4858 16.6083 12.4858H14.3291V25.0983V27.3775C14.3291 30.0571 16.5014 32.2295 19.1811 32.2295H21.4601H26.3121C23.6326 32.2293 21.4601 30.0571 21.4601 27.3775Z" fill="url(#paint1_linear_124_846)"/>
<defs>
<filter id="filter0_f_124_846" x="-0.000244141" y="0.000244141" width="45.6494" height="45.6494" filterUnits="userSpaceOnUse" color-interpolation-filters="sRGB">
<feFlood flood-opacity="0" result="BackgroundImageFix"/>
<feBlend mode="normal" in="SourceGraphic" in2="BackgroundImageFix" result="shape"/>
<feGaussianBlur stdDeviation="8.58362" result="effect1_foregroundBlur_124_846"/>
</filter>
<linearGradient id="paint0_linear_124_846" x1="26.9494" y1="25.3837" x2="24.97" y2="31.4087" gradientUnits="userSpaceOnUse">
<stop stop-color="#F0C456"/>
<stop offset="1" stop-color="#7B611F"/>
</linearGradient>
<linearGradient id="paint1_linear_124_846" x1="17.5605" y1="29.1711" x2="21.5605" y2="16.1711" gradientUnits="userSpaceOnUse">
<stop offset="0.227634" stop-color="#C9A54C"/>
<stop offset="1" stop-color="#F0C556"/>
</linearGradient>
</defs>
</svg>
