<svg width="187" height="42" viewBox="0 0 187 42" fill="none" xmlns="http://www.w3.org/2000/svg">
<path d="M115.417 14.0499C116.811 14.0499 118.042 14.3561 119.111 14.9669C120.199 15.5777 121.049 16.484 121.659 17.6866C122.27 18.8702 122.575 20.3118 122.575 22.0108V23.0704H112.181C112.238 23.9865 112.554 24.7784 113.126 25.4464C113.718 26.1144 114.529 26.4492 115.56 26.4493C116.152 26.4493 116.63 26.3633 116.992 26.1915C117.374 26.0006 117.67 25.7906 117.88 25.5616C118.09 25.3135 118.232 25.0933 118.309 24.9024C118.385 24.7116 118.424 24.6163 118.424 24.6163H122.433C122.433 24.6163 122.385 24.7976 122.289 25.1602C122.213 25.5039 122.041 25.9339 121.774 26.4493C121.506 26.9646 121.115 27.4799 120.6 27.9952C120.104 28.5106 119.445 28.9407 118.624 29.2843C117.803 29.6279 116.782 29.7989 115.56 29.7989C114.224 29.7989 113.069 29.5796 112.096 29.1407C111.122 28.6826 110.32 28.0815 109.69 27.337C109.06 26.5734 108.583 25.7236 108.258 24.7882C107.953 23.8528 107.8 22.8882 107.8 21.8956C107.8 20.9413 107.943 20.0061 108.23 19.0899C108.535 18.1545 108.994 17.3047 109.605 16.5411C110.235 15.7778 111.026 15.1764 111.981 14.7374C112.954 14.2792 114.1 14.0499 115.417 14.0499ZM130.602 14.0499C131.575 14.0499 132.377 14.2127 133.007 14.5372C133.637 14.8426 134.114 15.1765 134.439 15.5391C134.782 15.9016 134.992 16.1496 135.069 16.2833H135.297V14.337H139.65V29.5128H135.297V27.5655H135.069C134.992 27.6991 134.782 27.9479 134.439 28.3106C134.114 28.6732 133.637 29.0165 133.007 29.3409C132.377 29.6463 131.575 29.7989 130.602 29.7989C129.476 29.7989 128.492 29.5796 127.653 29.1407C126.832 28.6826 126.144 28.0815 125.59 27.337C125.036 26.5734 124.617 25.7236 124.33 24.7882C124.063 23.8528 123.93 22.8984 123.93 21.9249C123.93 20.9514 124.063 19.9969 124.33 19.0616C124.617 18.1262 125.036 17.2856 125.59 16.5411C126.144 15.7775 126.832 15.1764 127.653 14.7374C128.492 14.2794 129.476 14.0499 130.602 14.0499ZM147.387 14.0499C148.551 14.0499 149.516 14.2127 150.28 14.5372C151.062 14.8426 151.683 15.2338 152.141 15.711C152.599 16.1691 152.942 16.6372 153.171 17.1143C153.4 17.5725 153.544 17.9637 153.601 18.2882C153.676 18.5877 153.714 18.7404 153.715 18.7462H149.822C149.822 18.7462 149.764 18.6221 149.65 18.3741C149.535 18.1069 149.296 17.8488 148.934 17.6007C148.59 17.3335 148.056 17.2003 147.33 17.2003C146.586 17.2003 146.07 17.3528 145.783 17.6583C145.497 17.9445 145.354 18.2499 145.354 18.5743C145.354 18.9561 145.517 19.2428 145.841 19.4337C146.185 19.6245 146.624 19.7772 147.158 19.8917L149.134 20.2921C150.585 20.5784 151.778 21.0852 152.713 21.8106C153.648 22.5169 154.116 23.5473 154.116 24.9024C154.116 25.8186 153.878 26.6492 153.401 27.3936C152.923 28.1381 152.226 28.73 151.31 29.169C150.394 29.5889 149.267 29.7989 147.931 29.7989C146.671 29.7989 145.631 29.6278 144.81 29.2843C143.989 28.9407 143.331 28.5198 142.834 28.0235C142.357 27.5082 141.994 27.0022 141.746 26.5059C141.517 25.9907 141.365 25.5614 141.288 25.2179L141.202 24.7022H145.24C145.24 24.7022 145.268 24.7976 145.325 24.9884C145.383 25.1793 145.507 25.3994 145.698 25.6475C145.907 25.8956 146.204 26.1149 146.585 26.3057C146.967 26.4966 147.483 26.5919 148.132 26.5919C148.934 26.5918 149.478 26.43 149.764 26.1056C150.069 25.7811 150.222 25.4564 150.222 25.1319C150.222 24.4447 149.659 23.986 148.532 23.7569L146.471 23.3565C145.593 23.1847 144.762 22.9369 143.98 22.6124C143.216 22.2688 142.596 21.8008 142.118 21.2091C141.66 20.5982 141.431 19.8149 141.431 18.8604C141.431 17.9444 141.67 17.1237 142.147 16.3985C142.624 15.6731 143.302 15.0997 144.18 14.6798C145.077 14.2598 146.146 14.0499 147.387 14.0499ZM163.142 14.0499C164.841 14.0499 166.283 14.4226 167.466 15.1671C168.649 15.8924 169.547 16.8562 170.157 18.0587C170.787 19.2422 171.103 20.5313 171.103 21.9249C171.103 23.3184 170.787 24.6168 170.157 25.8194C169.547 27.0028 168.649 27.9666 167.466 28.711C166.283 29.4364 164.841 29.7989 163.142 29.7989C161.443 29.7989 160.002 29.4363 158.819 28.711C157.635 27.9666 156.728 27.0028 156.098 25.8194C155.487 24.6168 155.182 23.3184 155.182 21.9249C155.182 20.5313 155.487 19.2422 156.098 18.0587C156.728 16.8561 157.635 15.8924 158.819 15.1671C160.002 14.4227 161.443 14.0499 163.142 14.0499ZM181.392 14.0499C182.575 14.0499 183.54 14.3273 184.284 14.8809C185.029 15.4154 185.573 16.1119 185.916 16.9708C186.26 17.8107 186.432 18.6985 186.432 19.6339V29.5128H182.079V20.378C182.079 19.6528 181.879 19.0135 181.478 18.46C181.096 17.9065 180.475 17.63 179.616 17.63C178.968 17.63 178.452 17.7826 178.071 18.088C177.689 18.3934 177.412 18.7846 177.24 19.2618C177.069 19.739 176.983 20.2449 176.983 20.7794V29.5128H172.63V14.337H176.983V16.5128H177.125C177.297 16.2073 177.546 15.8633 177.87 15.4815C178.214 15.0999 178.663 14.7658 179.216 14.4796C179.789 14.1933 180.514 14.0499 181.392 14.0499ZM99.3499 8.32332C100.915 8.32332 102.251 8.59988 103.359 9.1534C104.485 9.70699 105.344 10.4709 105.936 11.4444C106.547 12.418 106.852 13.5443 106.852 14.8233C106.852 16.2167 106.499 17.4385 105.793 18.4884C105.087 19.5192 104.084 20.2738 102.786 20.7511L107.397 29.5128H103.555L96.7942 17.7442H99.2922C100.266 17.7442 101.03 17.4769 101.583 16.9425C102.137 16.408 102.414 15.7494 102.414 14.9669C102.414 14.1651 102.137 13.4965 101.583 12.962C101.03 12.4085 100.266 12.1319 99.2922 12.1319H95.1692V14.9151L91.3821 8.32332H99.3499ZM131.862 17.5723C131.079 17.5723 130.42 17.7917 129.886 18.2306C129.371 18.6505 128.978 19.1952 128.711 19.8634C128.463 20.5314 128.339 21.2187 128.339 21.9249C128.339 22.6311 128.463 23.3184 128.711 23.9864C128.978 24.6546 129.371 25.2085 129.886 25.6475C130.42 26.0673 131.079 26.2774 131.862 26.2774C132.644 26.2774 133.293 26.0675 133.809 25.6475C134.343 25.2085 134.735 24.6546 134.983 23.9864C135.25 23.3183 135.383 22.6311 135.383 21.9249C135.383 21.2187 135.25 20.5314 134.983 19.8634C134.735 19.1952 134.343 18.6505 133.809 18.2306C133.293 17.7915 132.644 17.5724 131.862 17.5723ZM163.142 17.6007C162.378 17.6007 161.729 17.8014 161.195 18.2022C160.66 18.6031 160.249 19.1285 159.963 19.7774C159.696 20.4264 159.563 21.1424 159.563 21.9249C159.563 22.6884 159.696 23.4043 159.963 24.0723C160.249 24.7214 160.66 25.2467 161.195 25.6475C161.729 26.0484 162.378 26.2481 163.142 26.2481C163.905 26.2481 164.545 26.0484 165.061 25.6475C165.595 25.2467 166.006 24.7214 166.292 24.0723C166.579 23.4043 166.721 22.6884 166.721 21.9249C166.721 21.1424 166.578 20.4264 166.292 19.7774C166.006 19.1284 165.595 18.6031 165.061 18.2022C164.545 17.8013 163.905 17.6007 163.142 17.6007ZM115.331 17.3145C114.491 17.3145 113.776 17.5912 113.184 18.1446C112.592 18.6791 112.257 19.443 112.181 20.4356H118.395C118.338 19.3859 118.023 18.6034 117.45 18.088C116.878 17.5726 116.171 17.3146 115.331 17.3145Z" fill="#C8A24B"/>
<path d="M47.4047 30.0738V8.8842H51.8144V26.2368H62.1801V30.0738H47.4047ZM70.8352 30.3601C69.4989 30.3601 68.344 30.1406 67.3704 29.7016C66.3968 29.2434 65.595 28.6421 64.9651 27.8976C64.3351 27.134 63.8579 26.2845 63.5333 25.3491C63.2279 24.4137 63.0752 23.4497 63.0752 22.457C63.0752 21.5025 63.2184 20.5671 63.5047 19.6508C63.8101 18.7154 64.2683 17.8659 64.8792 17.1023C65.5091 16.3387 66.3013 15.7374 67.2558 15.2983C68.2294 14.8402 69.3748 14.6111 70.692 14.6111C72.0855 14.6111 73.3168 14.9166 74.3859 15.5274C75.474 16.1383 76.3235 17.0451 76.9343 18.2477C77.5452 19.4313 77.8506 20.8725 77.8506 22.5715V23.631H67.4563C67.5135 24.5473 67.8285 25.3395 68.4012 26.0077C68.993 26.6758 69.8043 27.0099 70.8352 27.0099C71.4269 27.0099 71.9042 26.924 72.2669 26.7522C72.6487 26.5613 72.9446 26.3513 73.1546 26.1222C73.3646 25.8741 73.5077 25.6545 73.5841 25.4636C73.6604 25.2727 73.6986 25.1773 73.6986 25.1773H77.7075C77.7075 25.1773 77.6597 25.3586 77.5643 25.7213C77.4879 26.065 77.3161 26.4945 77.0489 27.0099C76.7816 27.5253 76.3903 28.0407 75.8749 28.5562C75.3785 29.0716 74.7199 29.5011 73.8991 29.8447C73.0782 30.1883 72.0569 30.3601 70.8352 30.3601ZM67.4563 20.9966H73.67C73.6127 19.9467 73.2977 19.164 72.725 18.6486C72.1524 18.1332 71.446 17.8755 70.6061 17.8755C69.7661 17.8755 69.0503 18.1523 68.4585 18.7059C67.8667 19.2404 67.5326 20.004 67.4563 20.9966ZM78.1625 30.0738L82.7727 22.5143L78.1625 14.8975H82.6868L85.6934 19.9085L88.7573 14.8975H93.2816L88.4996 22.5143L93.2529 30.0738H88.7573L85.6934 25.0627L82.7154 30.0738H78.1625Z" fill="white"/>
<circle cx="20.76" cy="20.4022" r="19.3284" fill="#131313"/>
<g filter="url(#filter0_f_159_1024)">
<circle cx="20.939" cy="20.9391" r="5.19002" fill="#D9AE40"/>
</g>
<g clip-path="url(#clip0_159_1024)">
<path d="M20.9934 9.20097L21.1776 9.71242C21.2787 9.99279 21.4403 10.2474 21.6511 10.4582C21.8618 10.6689 22.1164 10.8306 22.3968 10.9316L22.9083 11.1158C22.9184 11.1195 22.9271 11.1262 22.9332 11.135C22.9394 11.1438 22.9427 11.1543 22.9427 11.1651C22.9427 11.1759 22.9394 11.1864 22.9332 11.1952C22.9271 11.204 22.9184 11.2107 22.9083 11.2144L22.3968 11.3986C22.1164 11.4996 21.8618 11.6613 21.6511 11.872C21.4403 12.0828 21.2787 12.3374 21.1776 12.6178L20.9934 13.1292C20.9897 13.1393 20.983 13.148 20.9742 13.1542C20.9654 13.1604 20.9549 13.1637 20.9441 13.1637C20.9334 13.1637 20.9229 13.1604 20.9141 13.1542C20.9052 13.148 20.8985 13.1393 20.8948 13.1292L20.7106 12.6178C20.6096 12.3374 20.4479 12.0828 20.2372 11.872C20.0265 11.6613 19.7718 11.4996 19.4914 11.3986L18.98 11.2144C18.9699 11.2107 18.9612 11.204 18.955 11.1952C18.9489 11.1864 18.9456 11.1759 18.9456 11.1651C18.9456 11.1543 18.9489 11.1438 18.955 11.135C18.9612 11.1262 18.9699 11.1195 18.98 11.1158L19.4914 10.9316C19.7718 10.8306 20.0265 10.6689 20.2372 10.4582C20.4479 10.2474 20.6096 9.99279 20.7106 9.71242L20.8948 9.20097C20.8984 9.19077 20.9051 9.18194 20.9139 9.17569C20.9228 9.16944 20.9333 9.16608 20.9441 9.16608C20.9549 9.16608 20.9655 9.16944 20.9743 9.17569C20.9832 9.18194 20.9898 9.19077 20.9934 9.20097ZM23.2956 7.9719L23.389 8.23083C23.4402 8.37279 23.5221 8.50172 23.6288 8.60843C23.7355 8.71514 23.8644 8.79702 24.0064 8.84824L24.2653 8.94158C24.2704 8.94345 24.2749 8.94685 24.278 8.95132C24.2811 8.95579 24.2828 8.96112 24.2828 8.96658C24.2828 8.97204 24.2811 8.97736 24.278 8.98184C24.2749 8.98631 24.2704 8.98971 24.2653 8.99158L24.0064 9.08492C23.8644 9.13614 23.7355 9.21801 23.6288 9.32473C23.5221 9.43144 23.4402 9.56037 23.389 9.70232L23.2956 9.96126C23.2938 9.96639 23.2904 9.97082 23.2859 9.97395C23.2814 9.97708 23.2761 9.97876 23.2706 9.97876C23.2652 9.97876 23.2598 9.97708 23.2554 9.97395C23.2509 9.97082 23.2475 9.96639 23.2456 9.96126L23.1523 9.70232C23.1011 9.56037 23.0192 9.43144 22.9125 9.32473C22.8058 9.21801 22.6768 9.13614 22.5349 9.08492L22.2759 8.99158C22.2708 8.98971 22.2664 8.98631 22.2633 8.98184C22.2601 8.97736 22.2584 8.97204 22.2584 8.96658C22.2584 8.96112 22.2601 8.95579 22.2633 8.95132C22.2664 8.94685 22.2708 8.94345 22.2759 8.94158L22.5349 8.84824C22.6768 8.79702 22.8058 8.71514 22.9125 8.60843C23.0192 8.50172 23.1011 8.37279 23.1523 8.23083L23.2456 7.9719C23.2475 7.96677 23.2509 7.96234 23.2554 7.95921C23.2598 7.95608 23.2652 7.9544 23.2706 7.9544C23.2761 7.9544 23.2814 7.95608 23.2859 7.95921C23.2904 7.96234 23.2938 7.96677 23.2956 7.9719ZM23.2956 12.3692L23.389 12.6281C23.4402 12.7701 23.5221 12.899 23.6288 13.0057C23.7355 13.1124 23.8644 13.1943 24.0064 13.2455L24.2653 13.3389C24.2704 13.3407 24.2749 13.3441 24.278 13.3486C24.2811 13.3531 24.2828 13.3584 24.2828 13.3639C24.2828 13.3693 24.2811 13.3746 24.278 13.3791C24.2749 13.3836 24.2704 13.387 24.2653 13.3889L24.0064 13.4822C23.8644 13.5334 23.7355 13.6153 23.6288 13.722C23.5221 13.8287 23.4402 13.9576 23.389 14.0996L23.2956 14.3585C23.2938 14.3637 23.2904 14.3681 23.2859 14.3712C23.2814 14.3744 23.2761 14.376 23.2706 14.376C23.2652 14.376 23.2598 14.3744 23.2554 14.3712C23.2509 14.3681 23.2475 14.3637 23.2456 14.3585L23.1523 14.0996C23.1011 13.9576 23.0192 13.8287 22.9125 13.722C22.8058 13.6153 22.6768 13.5334 22.5349 13.4822L22.2759 13.3889C22.2708 13.387 22.2664 13.3836 22.2633 13.3791C22.2601 13.3746 22.2584 13.3693 22.2584 13.3639C22.2584 13.3584 22.2601 13.3531 22.2633 13.3486C22.2664 13.3441 22.2708 13.3407 22.2759 13.3389L22.5349 13.2455C22.6768 13.1943 22.8058 13.1124 22.9125 13.0057C23.0192 12.899 23.1011 12.7701 23.1523 12.6281L23.2456 12.3692C23.2541 12.3458 23.2874 12.3458 23.2956 12.3692Z" fill="#D9AE40"/>
</g>
<path d="M24.1909 23.0244H19.6875V25.1152C19.6875 27.5735 21.6803 29.5664 24.1387 29.5664H24.191H24.2434C26.7018 29.5664 28.6946 27.5736 28.6946 25.1152V23.0244H24.1909Z" fill="url(#paint0_linear_159_1024)"/>
<path d="M19.6872 25.1152V23.0244V15.905C19.6872 13.4468 17.6944 11.4538 15.2361 11.4538H13.1453V23.0244V25.1152C13.1453 27.5735 15.1381 29.5664 17.5965 29.5664H19.6872H24.1384C21.6801 29.5663 19.6872 27.5735 19.6872 25.1152Z" fill="url(#paint1_linear_159_1024)"/>
<defs>
<filter id="filter0_f_159_1024" x="-9.53674e-06" y="0" width="41.8782" height="41.8781" filterUnits="userSpaceOnUse" color-interpolation-filters="sRGB">
<feFlood flood-opacity="0" result="BackgroundImageFix"/>
<feBlend mode="normal" in="SourceGraphic" in2="BackgroundImageFix" result="shape"/>
<feGaussianBlur stdDeviation="7.87452" result="effect1_foregroundBlur_159_1024"/>
</filter>
<linearGradient id="paint0_linear_159_1024" x1="24.7235" y1="23.2863" x2="22.9076" y2="28.8136" gradientUnits="userSpaceOnUse">
<stop stop-color="#F0C456"/>
<stop offset="1" stop-color="#7B611F"/>
</linearGradient>
<linearGradient id="paint1_linear_159_1024" x1="16.1098" y1="26.7607" x2="19.7793" y2="14.8346" gradientUnits="userSpaceOnUse">
<stop offset="0.227634" stop-color="#C9A54C"/>
<stop offset="1" stop-color="#F0C556"/>
</linearGradient>
<clipPath id="clip0_159_1024">
<rect width="7.33911" height="7.33911" fill="white" transform="translate(17.9446 7.49553)"/>
</clipPath>
</defs>
</svg>
